<svg width="30" height="30" viewBox="0 0 30 30" fill="none" xmlns="http://www.w3.org/2000/svg">
<g clip-path="url(#clip0_110_119)">
<path fill-rule="evenodd" clip-rule="evenodd" d="M14.9912 0C6.73721 0 0 6.73721 0 14.9912C0 22.6102 5.73192 28.9065 13.1041 29.8589V19.7178H10.0353V15.2205H13.1041V12.7866C13.1041 11.9929 13.1922 11.1817 13.4039 10.4056C13.8095 8.92416 14.515 7.77778 15.6261 7.07231C17.037 6.11993 18.8889 5.94356 20.3351 5.94356C21.4638 5.94356 23.1041 6.19048 23.4921 6.31393V10.4056C22.716 10.3527 22.0106 10.3351 21.358 10.3704C21.1111 10.3704 20.8642 10.4056 20.6173 10.4586C18.3422 10.8113 18.4656 12.9982 18.4303 13.6684V15.2557H23.2451L22.4339 19.7531H18.4303V29.612C25.0441 28.0423 30 22.0988 30 15.0265C30 6.73721 23.2628 0 14.9912 0Z" fill="#343434"/>
</g>
<defs>
<clipPath id="clip0_110_119">
<rect width="30" height="29.8589" fill="white"/>
</clipPath>
</defs>
</svg>
