<svg width="30" height="31" viewBox="0 0 30 31" fill="none" xmlns="http://www.w3.org/2000/svg">
<g clip-path="url(#clip0_110_637)">
<path fill-rule="evenodd" clip-rule="evenodd" d="M22.6984 12.1487C22.6631 11.4433 22.5573 10.8436 22.3809 10.4027V10.3674C22.2399 9.96179 22.0106 9.6267 21.6931 9.30924V9.27396C21.4286 8.99178 21.0758 8.7625 20.6349 8.60377C20.1411 8.40977 19.5591 8.30395 18.9065 8.28631H18.8712H18.836C18.254 8.25104 17.2487 8.2334 15.8377 8.2334C15.5908 8.2334 15.3263 8.2334 15.0441 8.2334C14.7795 8.2334 14.515 8.2334 14.2504 8.2334C12.8395 8.2334 11.8166 8.25104 11.2522 8.28631H11.2169H11.1817C10.5467 8.30395 9.96472 8.40977 9.45326 8.60377C9.01234 8.78014 8.67724 8.99178 8.39505 9.2916V9.32687C8.07759 9.64433 7.84832 9.99707 7.70722 10.3851V10.4203C7.53086 10.8789 7.42504 11.4609 7.38976 12.1487C7.33685 13.1893 7.33685 14.0006 7.33685 14.8824C7.33685 15.2352 7.33685 15.5879 7.33685 15.9759C7.33685 16.3639 7.33685 16.7166 7.33685 17.0694C7.33685 17.9512 7.33685 18.7625 7.38976 19.7854C7.42504 20.4909 7.53086 21.0905 7.70722 21.5315V21.5667C7.84832 21.9724 8.07759 22.3075 8.39505 22.6249V22.6602C8.67724 22.9424 9.01234 23.1717 9.45326 23.3304C9.94708 23.5244 10.5291 23.6302 11.1817 23.6479H11.2169H11.2522C11.8342 23.6831 12.8395 23.7008 14.2504 23.7008C14.4973 23.7008 14.7619 23.7008 15.0441 23.7008C15.3086 23.7008 15.5732 23.7008 15.8377 23.7008C17.2487 23.7008 18.254 23.6831 18.836 23.6479H18.8712H18.9065C19.5414 23.6302 20.1234 23.5244 20.6349 23.3304C21.0758 23.154 21.4109 22.9424 21.6931 22.6426V22.6073C22.0106 22.2898 22.2399 21.9371 22.3809 21.5491V21.5138C22.5573 21.0553 22.6631 20.4733 22.6984 19.7854C22.7513 18.7449 22.7513 17.9336 22.7513 17.0517C22.7513 16.699 22.7513 16.3463 22.7513 15.9583C22.7513 15.5703 22.7513 15.2175 22.7513 14.8648C22.7513 13.983 22.7513 13.1717 22.6984 12.1487ZM14.9912 20.826C12.3104 20.826 10.1234 18.6567 10.1234 15.9583C10.1234 13.2599 12.2928 11.0905 14.9912 11.0905C17.6896 11.0905 19.8589 13.2599 19.8589 15.9583C19.8589 18.6567 17.6896 20.826 14.9912 20.826ZM20.0529 12.0429C19.418 12.0429 18.9242 11.5315 18.9242 10.9142C18.9242 10.2969 19.4356 9.78543 20.0529 9.78543C20.6702 9.78543 21.1817 10.2969 21.1817 10.9142C21.1817 11.5315 20.6702 12.0429 20.0529 12.0429Z" fill="white"/>
<path fill-rule="evenodd" clip-rule="evenodd" d="M14.9912 12.8013C13.2452 12.8013 11.8342 14.2122 11.8342 15.9582C11.8342 17.7043 13.2452 19.1152 14.9912 19.1152C16.7372 19.1152 18.1482 17.7043 18.1482 15.9582C18.1482 14.2122 16.7372 12.8013 14.9912 12.8013Z" fill="white"/>
<path fill-rule="evenodd" clip-rule="evenodd" d="M14.9912 0.967041C6.73721 0.967041 0 7.70425 0 15.9582C0 24.2122 6.73721 30.9494 14.9912 30.9494C23.2451 30.9494 29.9824 24.2122 29.9824 15.9582C29.9824 7.70425 23.2628 0.967041 14.9912 0.967041ZM24.4621 15.9582C24.4621 17.2986 24.4797 18.3744 24.4092 19.8559C24.3739 20.7025 24.2504 21.4785 23.9683 22.1487C23.7213 22.8013 23.351 23.348 22.8748 23.8242C22.4339 24.3004 21.8695 24.6531 21.1993 24.9177C20.5115 25.1822 19.7355 25.3409 18.9065 25.3586C18.1305 25.4115 16.7372 25.4291 15.0088 25.4115C13.2628 25.4115 11.8871 25.4115 11.1111 25.3586C10.2646 25.3409 9.50617 25.1822 8.81834 24.9177C8.14815 24.6531 7.58377 24.3004 7.14286 23.8242C6.66667 23.348 6.2963 22.7836 6.04938 22.1487C5.7672 21.4609 5.64374 20.6849 5.60847 19.8559C5.55556 18.7272 5.55556 17.8277 5.55556 16.8577C5.55556 16.5579 5.55556 16.258 5.55556 15.9406C5.55556 14.5826 5.53792 13.5244 5.60847 12.0429C5.64374 11.1963 5.7672 10.4203 6.04938 9.75011C6.2963 9.09755 6.66667 8.55082 7.14286 8.07463C7.58377 7.59843 8.14815 7.2457 8.81834 6.98115C9.50617 6.7166 10.2822 6.55787 11.1111 6.54023C11.8871 6.48732 13.2804 6.46969 15.0088 6.48732C16.7549 6.48732 18.1305 6.48732 18.9065 6.54023C19.7531 6.55787 20.5115 6.7166 21.1993 6.98115C21.8695 7.2457 22.4339 7.59843 22.8748 8.07463C23.351 8.55082 23.7213 9.11519 23.9683 9.75011C24.2504 10.4379 24.3739 11.214 24.4092 12.0429C24.4621 13.1716 24.4621 14.0711 24.4621 15.0411C24.4621 15.3409 24.4621 15.6408 24.4621 15.9582Z" fill="white"/>
</g>
<defs>
<clipPath id="clip0_110_637">
<rect width="30" height="30" fill="white" transform="translate(0 0.967041)"/>
</clipPath>
</defs>
</svg>
