<svg width="255" height="253" viewBox="0 0 255 253" fill="none" xmlns="http://www.w3.org/2000/svg">
<g clip-path="url(#clip0_110_884)">
<path d="M18.3344 127.868C19.2026 135.103 20.1346 142.33 20.9134 149.577C21.3263 153.408 21.0369 157.234 19.8367 160.924C19.2749 162.647 19.6792 163.324 21.5178 163.941C26.3652 165.571 31.0595 167.652 35.8729 169.393C38.0221 170.172 40.299 170.644 42.5461 171.108C47.7213 172.18 52.6751 174.44 58.0929 174.193C61.8678 174.023 65.3449 173.164 66.9919 169.129C67.192 168.64 67.6771 168.193 68.141 167.903C68.4602 167.699 69.0773 167.622 69.3667 167.801C69.6816 167.997 70.0136 168.635 69.9157 168.942C69.4263 170.453 68.89 171.959 68.1963 173.389C66.1578 177.598 62.2126 178.624 58.1099 178.824C55.2457 178.964 52.407 178.913 49.5513 177.377C46.4785 175.726 42.8781 174.955 39.4265 174.138C35.3579 173.172 31.817 171.146 28.0931 169.423C25.0672 168.022 21.7561 167.18 18.4961 166.401C17.6917 166.209 16.3894 167.022 15.6787 167.737C13.3805 170.048 10.7802 171.687 7.60102 172.495C4.40485 173.308 1.03418 171.572 0.170237 168.516C-0.617102 165.728 1.32358 162.064 4.31122 161.43C6.40937 160.987 8.66924 161.03 10.8312 161.192C13.9593 161.426 14.5168 161.056 14.2147 157.906C13.4954 150.429 12.6528 142.964 11.9888 135.482C11.5292 130.324 11.542 125.268 13.6529 120.276C18.0279 109.938 29.8934 110.355 34.9706 115.939C37.6646 118.897 37.1496 124.659 34.0386 126.481C31.5617 127.932 27.8718 126.255 27.3271 123.433C26.8887 121.161 29.2167 119.531 31.7872 120.263C32.3235 120.416 32.9278 120.344 33.5023 120.374C33.3874 119.71 33.4598 118.931 33.1321 118.399C30.8467 114.692 24.3309 113.505 21.2965 116.492C18.8153 118.939 18.2748 122.323 18.3131 125.74C18.3216 126.447 18.3854 127.157 18.4195 127.864L18.3259 127.877L18.3344 127.868ZM8.37984 163.767C8.37559 163.724 8.37133 163.681 8.36708 163.639C7.32013 163.775 6.2136 163.745 5.24325 164.086C3.59197 164.665 2.79186 165.929 3.08552 167.75C3.36215 169.491 4.8432 169.942 6.09443 169.823C7.56271 169.686 9.16718 169.129 10.3418 168.256C11.2909 167.55 11.6952 166.103 12.3421 164.988C11.2355 164.579 10.1333 164.167 9.02248 163.775C8.83097 163.707 8.60115 163.767 8.38836 163.767H8.37984Z" fill="white"/>
<path d="M93.0082 160.132C97.1619 160.179 101.018 159.196 103.597 155.808C106.393 152.135 106.133 146.743 102.656 143.049C99.4431 139.636 95.5617 136.848 91.9399 133.826C89.0119 131.384 85.7391 129.277 83.1388 126.528C79.317 122.489 77.0443 114.296 82.3301 108.751C85.7051 105.21 90.2972 104.056 95.1957 104.674C96.4427 104.831 97.6301 105.431 98.8728 105.614C99.7197 105.738 100.69 105.678 101.482 105.376C103.056 104.776 103.886 105.001 104.078 106.84C104.439 110.355 104.98 113.853 105.252 117.377C105.303 118.054 104.614 119.254 104.044 119.412C102.801 119.756 102.426 118.752 102.363 117.599C102.286 116.19 102.094 114.781 101.928 113.377C101.558 110.232 100.264 108.78 97.1279 108.091C94.17 107.44 91.2292 107.125 88.5693 109.083C85.9349 111.019 85.0497 114.271 86.1349 117.411C87.4925 121.357 90.7823 123.489 93.787 125.949C98.5919 129.885 103.444 133.784 107.993 138.001C112.496 142.176 113.956 150.671 110.121 155.702C107.58 159.038 103.925 160.787 99.9495 161.817C94.3913 163.256 88.8033 163.605 83.6793 160.511C77.5508 156.812 74.4397 147.99 79.3851 141.81C81.3257 139.385 84.5645 138.316 87.5691 139.261C90.6291 140.227 92.3783 142.632 92.4421 145.96C92.4804 148.058 90.4802 150.561 88.5267 150.858C85.8412 151.267 83.6367 149.96 82.8536 147.488C82.245 145.568 84.4496 143.692 86.7137 144.075C87.3819 144.189 88.1309 143.845 88.8416 143.709C88.2884 143.134 87.8415 142.313 87.1691 142.032C84.3942 140.87 80.7044 143.262 79.9809 146.569C78.6871 152.493 83.1771 158.689 89.6247 159.821C90.7355 160.017 91.8761 160.034 93.0082 160.132Z" fill="white"/>
<path d="M64.5065 54.603C67.3707 54.603 69.5667 54.4754 71.7415 54.6286C77.0018 55.0031 80.1511 58.2248 82.1769 62.7743C82.7174 63.9915 83.0877 65.3108 83.3643 66.6174C84.5645 72.3203 80.5554 76.9805 75.4143 79.4787C74.1546 80.0915 72.6778 80.2745 71.4478 80.9385C70.8393 81.2662 70.5669 82.2237 70.1498 82.9047C70.1243 82.9472 70.1796 83.0409 70.1924 83.109C71.1457 87.7053 72.4139 88.0798 76.1889 85.0411C76.8018 84.5475 77.8615 84.607 78.7126 84.407C78.3551 85.2071 78.1892 86.2072 77.6019 86.7648C76.6443 87.6755 75.4611 88.3905 74.2865 89.0161C72.98 89.7098 72.5842 90.5483 73.163 91.9484C73.7035 93.2507 74.1333 94.6041 74.5248 95.9575C75.0143 97.6556 76.0783 98.0173 77.6189 97.4343C78.0785 97.2598 78.5339 96.8938 78.9808 96.9108C79.5085 96.9321 80.0277 97.2683 80.5512 97.4726C80.3171 97.9875 80.2065 98.8004 79.8234 98.9664C77.8785 99.8005 75.8697 100.503 73.8652 101.188C71.4564 102.009 69.0433 102.818 66.5919 103.495C66.1195 103.627 65.4683 103.107 64.898 102.886C65.2385 102.346 65.5236 101.754 65.9492 101.286C66.145 101.069 66.6132 101.107 66.9536 101.022C69.2135 100.464 69.7072 99.5239 68.8986 97.3236C68.8517 97.1917 68.7666 97.0683 68.7326 96.9321C67.7878 93.1529 66.3833 90.561 61.604 89.9652C56.8885 89.3779 53.0539 86.1306 50.6238 81.6917C45.5635 72.4522 49.2874 61.1699 58.8121 56.765C59.7271 56.3437 60.506 55.3819 61.0635 54.4924C61.9955 52.9986 62.5913 51.3005 63.5404 49.8194C63.9064 49.2491 64.8427 49.0491 65.5194 48.6788C65.6343 49.4577 65.9663 50.279 65.8173 51.0025C65.579 52.1644 65.0215 53.2667 64.5193 54.603H64.5065ZM58.8589 59.3909C54.6371 61.7699 52.075 64.9023 51.1898 69.0986C49.3683 77.7636 53.9093 85.8242 62.9999 88.216C63.6213 88.3778 64.5193 88.3905 64.9534 88.0458C65.2555 87.8075 65.081 86.8201 64.9448 86.2072C64.7321 85.2539 64.3788 84.3304 64.0639 83.4026C61.6933 76.4613 58.8802 69.6221 59.3186 62.0466C59.3611 61.272 59.059 60.4762 58.8632 59.3909H58.8589ZM66.7493 57.8162C64.0213 57.7737 63.6128 58.2631 63.6808 61.0337C63.8255 66.8259 66.2769 71.9841 68.1538 77.2912C68.3581 77.87 69.6604 78.5254 70.3115 78.3977C73.8822 77.7125 78.0615 74.9249 77.3508 70.0902C76.9635 67.4345 76.0144 64.7491 74.7802 62.353C73.18 59.2462 70.2605 57.8375 66.7451 57.8162H66.7493Z" fill="white"/>
<path d="M99.8644 204.738C99.8644 205.232 99.8346 205.73 99.8687 206.223C99.9665 207.619 99.6984 208.807 98.1195 209.185C96.6001 209.551 94.6722 208.509 94.1785 207.053C93.9998 206.53 93.8593 205.942 93.9019 205.398C94.37 199.49 96.4682 194.473 101.55 190.957C108.755 185.97 116.062 181.126 124.251 177.93C128.03 176.453 132.107 175.709 136.086 174.798C137.448 174.487 138.346 174.215 138.742 172.636C139.61 169.184 142.338 167.784 145.381 169.665C149.684 172.325 153.812 175.338 157.698 178.581C162.349 182.463 166.882 186.536 171.04 190.932C173.355 193.379 174.33 196.805 173.866 200.337C173.547 202.763 172.095 204.125 169.669 203.9C166.669 203.627 163.724 202.844 160.732 202.436C153.603 201.457 146.471 200.444 139.316 199.678C134.678 199.184 130 199.018 125.332 198.873C123.221 198.81 121.093 199.103 118.986 199.333C118.309 199.405 117.535 199.631 117.033 200.057C115.641 201.24 114.428 201.699 113.087 199.98C112.811 199.627 112.066 199.486 111.543 199.503C108.785 199.58 106.018 199.661 103.269 199.886C99.958 200.154 99.5324 200.823 99.8729 204.738H99.8644ZM133.154 177.692C133.826 178.041 134.312 178.279 134.784 178.543C136.733 179.641 137.674 183.148 136.482 184.854C134.158 188.187 126.447 189.021 123.587 186.118C123.131 185.655 123.021 184.225 123.391 183.684C124.395 182.237 125.749 181.033 126.962 179.73L126.642 179.092C125.391 179.496 124.046 179.726 122.902 180.335C118.484 182.68 114.011 184.957 109.802 187.642C107.687 188.991 106.682 192.064 103.435 191.711C103.384 191.706 103.324 191.792 103.265 191.83C98.1237 194.8 96.4086 199.669 95.966 205.185C95.9277 205.653 96.7065 206.181 97.1066 206.683C97.5322 206.3 98.2557 205.968 98.328 205.53C98.5238 204.355 98.4599 203.134 98.4685 201.929C98.477 200.41 99.026 199.082 100.643 199.039C105.631 198.912 110.657 196.111 115.79 199.384C116.564 195.877 118.973 195.52 121.961 195.737C125.204 195.971 128.477 195.767 131.737 195.805C133.426 195.822 135.393 195.239 136.146 197.635C136.222 197.886 136.708 198.141 137.014 198.163C140.266 198.388 143.521 198.567 146.773 198.763C146.786 198.554 146.798 198.341 146.811 198.133C143.721 197.869 140.627 197.605 137.538 197.346C137.538 197.116 137.542 196.882 137.546 196.652C137.891 196.507 138.248 196.205 138.58 196.235C145.117 196.818 151.654 197.431 158.187 198.056C160.813 198.307 160.979 198.124 160.119 195.664C158.983 192.404 159.915 189.927 162.979 188.225C164.503 187.378 164.405 186.578 163.171 185.48C159.953 182.624 156.966 179.484 153.578 176.858C150.85 174.738 147.713 173.121 144.666 171.444C143.538 170.823 142.155 170.746 141.304 172.163C140.414 173.644 139.836 175.155 141.406 176.568C142.768 177.794 144.1 179.062 145.56 180.156C149.416 183.05 153.174 186.029 155.842 190.128C156.302 190.83 156.544 191.672 156.885 192.451C156.646 192.609 156.404 192.766 156.166 192.924C155.544 192.187 154.94 191.443 154.306 190.719C152.701 188.885 151.233 186.889 149.433 185.272C146.309 182.463 142.942 179.926 139.738 177.202C138.312 175.989 134.805 176.019 133.145 177.683L133.154 177.692ZM164.562 199.576C163.469 199.576 162.49 199.593 161.515 199.571C160.592 199.55 159.672 199.482 158.749 199.431C158.723 199.699 158.702 199.967 158.677 200.235C159.877 200.52 161.068 200.886 162.285 201.074C164.273 201.376 166.273 201.669 168.278 201.746C169.014 201.776 170.112 201.389 170.461 200.827C172.219 198.022 171.027 192.098 168.444 189.983C167.201 188.966 163.826 189.089 162.426 190.204C161.064 191.285 160.519 193.545 161.468 195.205C162.311 196.682 163.435 198.005 164.567 199.571L164.562 199.576Z" fill="white"/>
<path d="M231.265 143.883C231.716 143.457 231.903 143.343 232.01 143.172C232.652 142.125 233.401 140.798 234.704 141.84C235.112 142.168 234.695 144.117 234.121 144.956C232.933 146.7 231.171 147.892 228.907 147.398C225.898 146.743 224.668 145.304 224.294 142.381C223.855 138.963 223.506 135.533 222.996 132.124C222.681 130.034 221.468 129.562 219.663 130.668C216.842 132.405 216.042 134.984 216.471 138.138C216.88 141.129 217.255 144.134 217.48 147.143C217.523 147.709 216.901 148.73 216.412 148.858C215.067 149.211 213.62 149.318 212.228 149.258C211.824 149.241 211.19 148.352 211.126 147.807C210.624 143.47 210.258 139.121 209.781 134.78C209.696 134.005 209.27 133.269 209.002 132.516C208.398 132.954 207.836 133.486 207.172 133.797C206.7 134.018 205.959 134.158 205.576 133.929C205.193 133.703 204.815 132.899 204.925 132.482C205.955 128.66 210.82 126.928 213.965 129.307C215.25 130.277 216.157 130.205 217.289 129.162C219.408 127.213 221.996 126.651 224.783 127.068C227.588 127.489 229.533 129.681 229.818 132.541C230.146 135.848 230.503 139.155 230.869 142.462C230.912 142.845 231.078 143.219 231.269 143.879L231.265 143.883Z" fill="white"/>
<path d="M53.8966 162.8C54.6498 161.86 54.8499 161.443 55.1776 161.234C55.8202 160.83 56.5352 160.541 57.2204 160.2C57.3566 161.034 57.8162 161.983 57.5694 162.681C56.4586 165.831 52.6581 167.01 49.6619 165.494C48.9001 165.111 47.4319 165.158 46.7935 165.66C40.9204 170.253 32.5022 165.184 32.0979 157.838C31.9106 154.399 32.3107 151.212 34.9536 148.641C37.022 146.632 39.4265 145.9 42.2822 145.985C44.7166 146.058 47.1765 145.836 49.6024 145.564C51.292 145.373 51.9303 146.015 52.0623 147.611C52.3942 151.637 52.7773 155.659 53.1858 159.677C53.2752 160.532 53.5646 161.37 53.9008 162.8H53.8966ZM46.6999 159.736C46.4147 157.212 46.121 154.689 45.8529 152.165C45.6572 150.318 44.3804 149.156 42.8227 149.177C41.8141 149.19 40.333 150.326 39.9075 151.318C38.4051 154.816 38.7626 158.37 40.699 161.673C41.5289 163.09 42.7121 164.098 44.5379 163.447C46.2785 162.83 46.785 161.443 46.6999 159.736Z" fill="white"/>
<path d="M150.778 152.757C151.395 151.773 151.548 151.348 151.846 151.097C152.361 150.663 152.969 150.339 153.54 149.969C153.701 150.697 154.178 151.527 153.974 152.127C152.948 155.136 150.352 156.48 147.739 155.621C145.653 154.936 144.168 155.153 142.1 156.072C136.376 158.608 131.324 156.485 129.021 149.799C127.06 144.092 130.137 137.682 135.405 136.193C135.814 136.078 136.231 135.959 136.652 135.937C140.091 135.759 143.53 135.648 146.964 135.427C148.633 135.32 148.513 136.422 148.616 137.491C149.028 141.713 149.441 145.939 149.914 150.156C149.99 150.846 150.352 151.505 150.778 152.757ZM135.205 145.539C135.976 147.73 136.474 149.973 137.567 151.871C138.074 152.748 139.789 153.42 140.891 153.335C142.334 153.225 143.372 151.956 143.249 150.297C143.036 147.411 142.968 144.479 142.334 141.683C142.091 140.619 140.559 139.644 139.393 139.095C138.912 138.87 137.486 139.682 137.129 140.359C136.303 141.917 135.865 143.683 135.205 145.539Z" fill="white"/>
<path d="M123.527 155.123C124.153 154.327 124.485 153.663 125.021 153.293C125.468 152.986 126.31 152.769 126.698 152.995C127.085 153.22 127.353 154.076 127.272 154.595C126.902 156.923 124.306 158.77 121.561 158.787C118.918 158.804 116.773 157.268 116.386 154.753C115.807 150.978 115.407 147.177 114.99 143.377C114.858 142.172 114.752 141.164 113.185 141.002C112.717 140.955 112.032 140.261 111.977 139.802C111.926 139.368 112.47 138.61 112.93 138.418C114.22 137.886 114.258 136.976 114.143 135.827C113.764 131.954 113.488 128.072 113.079 124.204C112.921 122.723 113.581 122.072 114.9 121.91C115.811 121.795 116.816 121.557 117.633 121.825C118.386 122.072 119.407 122.846 119.51 123.51C120.093 127.277 120.561 131.073 120.799 134.873C120.906 136.588 121.361 137.265 123.127 137.316C123.978 137.342 124.812 138.095 125.655 138.521C124.885 139.065 124.072 139.563 123.353 140.172C122.689 140.738 121.569 141.461 121.612 142.045C121.914 146.058 122.467 150.054 122.961 154.055C122.991 154.306 123.208 154.536 123.519 155.11L123.527 155.123Z" fill="white"/>
<path d="M255 141.151C252.034 145.296 247.029 146.994 242.718 145.322C237.01 143.108 234.274 139.244 235.078 133.894C236.142 126.83 242.492 123.297 248.855 124.846C253.161 125.893 254.353 131.26 251.029 134.473C249.582 135.869 247.637 136.737 246.02 137.976C245.267 138.55 244.237 139.453 244.245 140.189C244.267 141.776 246.322 143.274 247.731 142.802C249.152 142.325 250.527 141.504 251.714 140.568C253.523 139.142 253.817 139.108 254.992 141.151H255ZM242.535 133.822C242.462 135.38 243.313 135.967 244.535 135.431C246.058 134.763 247.659 133.937 248.757 132.745C249.527 131.915 250.016 130.196 249.689 129.179C249.421 128.345 247.816 127.706 246.697 127.434C245.122 127.051 244.216 128.221 243.739 129.566C243.25 130.954 242.93 132.401 242.535 133.822Z" fill="white"/>
<path d="M205.653 140.525C205.104 145.815 202.512 150.331 196.843 151.067C193.111 151.552 190.472 149.445 188.412 146.522C185.203 141.959 185.859 135.712 189.962 131.898C194.392 127.779 202.431 129.962 204.18 135.75C204.661 137.346 205.164 138.933 205.653 140.525ZM202.946 141.223C202.687 138.418 201.75 136.184 199.908 134.358C197.865 132.333 195.337 132.907 194.413 135.61C193.239 139.04 193.813 142.381 195.464 145.475C196.801 147.981 199.588 148.007 201.074 145.581C201.891 144.249 202.333 142.687 202.946 141.227V141.223Z" fill="white"/>
<path d="M196.367 91.6037C197.78 91.7654 198.661 91.8676 199.542 91.9655C198.933 92.8209 198.512 94.0296 197.686 94.4552C195.898 95.3702 194.085 95.2297 192.409 93.7444C191.728 93.1443 190.519 92.7358 189.63 92.8507C185.467 93.3869 182.799 91.4122 181.526 88.7821C179.769 85.1475 180.879 80.5299 183.91 77.7167C186.412 75.393 189.493 75.2568 192.941 77.0188C194.264 77.6955 195.839 77.9338 197.328 78.2062C199.001 78.5126 199.422 79.4404 199.005 80.9427C198.252 83.6622 197.456 86.3732 196.741 89.1055C196.507 90.0035 196.465 90.9568 196.371 91.608L196.367 91.6037ZM185.731 85.9434C185.867 86.037 186.008 86.1264 186.144 86.22C186.331 87.0457 186.327 87.9947 186.757 88.6586C187.238 89.3992 188.14 90.3823 188.817 90.3482C189.655 90.3099 190.885 89.5098 191.187 88.7395C192.034 86.5818 192.685 84.3006 193.009 82.0067C193.132 81.1385 192.375 79.7553 191.604 79.2829C191.021 78.9254 189.327 79.3297 188.915 79.9341C187.646 81.7981 186.757 83.9218 185.723 85.9434H185.731Z" fill="white"/>
<path d="M163.303 141.151C162.396 140.508 161.771 140.057 161.136 139.619C159.689 138.614 158.328 138.559 156.863 139.712C156.366 140.104 155.251 140.355 154.863 140.07C154.387 139.712 154.148 138.716 154.204 138.023C154.374 135.788 156.153 133.967 158.472 133.746C159.783 133.622 161.153 133.801 162.46 134.048C164.545 134.443 166.567 135.069 168.593 133.694C168.959 133.443 169.98 133.767 170.41 134.15C170.67 134.38 170.563 135.363 170.287 135.797C168.474 138.661 166.571 141.47 164.69 144.292C163.392 146.237 163.562 146.573 165.575 147.56C167.542 148.522 169.244 149.416 171.295 147.509C172.24 146.632 173.525 147.858 173.249 149.458C172.746 152.378 170.189 154.255 166.899 153.884C165.162 153.689 163.452 153.191 161.715 153.084C160.664 153.02 159.583 153.476 158.511 153.633C157.859 153.731 157.195 153.706 156.536 153.74C156.587 153.037 156.404 152.195 156.727 151.654C158.425 148.811 160.26 146.045 162.034 143.249C162.443 142.606 162.822 141.942 163.298 141.146L163.303 141.151Z" fill="white"/>
<path d="M151.578 84.3091C151.075 84.9305 150.671 85.6668 150.063 86.1519C146.16 89.2502 140.057 88.2926 137.15 84.1772C134.329 80.1852 135.32 74.4057 139.81 72.0777C141.942 70.9712 144.956 70.7158 147.356 71.184C150.892 71.8734 151.65 76.7975 148.811 79.0957C147.671 80.0192 146.33 80.7087 145.019 81.3981C143.866 82.0067 142.215 82.1684 143.164 84.1602C143.823 85.5433 145.547 86.0328 147.147 85.2284C147.713 84.9433 148.186 84.4709 148.765 84.2325C149.514 83.9261 150.322 83.7644 151.11 83.5431C151.267 83.8027 151.424 84.058 151.582 84.3176L151.578 84.3091ZM145.913 72.8906C143.721 73.0225 143.049 74.3759 142.717 75.8697C142.483 76.9337 142.598 78.0743 142.559 79.185C143.7 78.8361 144.853 78.5084 145.981 78.1211C146.373 77.9891 146.9 77.7934 147.041 77.4827C147.454 76.5634 148.062 75.508 147.905 74.627C147.781 73.9503 146.615 73.4609 145.913 72.8906Z" fill="white"/>
<path d="M181.373 145.436C181.407 146.002 181.377 146.581 181.501 147.126C181.607 147.62 181.884 148.075 182.084 148.547C182.514 148.275 182.918 147.935 183.382 147.747C184.071 147.471 184.799 147.309 185.514 147.096C185.578 147.764 185.88 148.526 185.663 149.088C184.795 151.344 182.446 152.88 180.441 152.684C177.726 152.416 175.572 150.616 175.177 147.696C174.568 143.219 174.283 138.695 173.84 134.192C173.725 133.039 174.228 132.443 175.364 132.384C180.471 132.107 179.905 131.32 180.526 136.159C180.722 137.699 180.867 139.248 181.024 140.797C181.182 142.342 181.331 143.887 181.484 145.428C181.445 145.428 181.411 145.436 181.373 145.441V145.436Z" fill="white"/>
<path d="M155.693 74.9632C154.489 74.9632 153.561 74.9632 152.633 74.9632C153.144 73.9673 153.425 72.6565 154.233 72.0649C155.085 71.4436 156.434 71.35 157.574 71.3244C159.391 71.2776 161.217 71.6053 163.035 71.5415C166.086 71.4351 168.797 73.3162 168.874 75.7846C168.912 76.989 168.814 78.1594 167.273 78.2913C165.797 78.4147 164.405 78.2105 163.877 76.4826C163.796 76.2144 163.864 75.8612 163.715 75.6569C163.362 75.1717 162.915 74.7462 162.507 74.2993C162.111 74.8015 161.426 75.2696 161.375 75.8059C161.039 79.2531 160.779 82.7132 160.621 86.1732C160.541 87.9479 159.902 88.7353 158.025 88.6076C155.412 88.4288 155.204 88.2416 155.387 85.5476C155.595 82.4408 155.744 79.3297 155.88 76.2187C155.902 75.7037 155.731 75.1845 155.693 74.9547V74.9632Z" fill="white"/>
<path d="M129.187 88.8161C128.089 88.5778 127 88.1905 125.893 88.1352C124.685 88.0756 123.463 88.3352 122.246 88.4246C121.608 88.4714 120.969 88.4544 120.331 88.4671C120.408 87.7564 120.271 86.9223 120.599 86.352C121.786 84.2793 123.195 82.3302 124.383 80.2575C124.821 79.4915 124.872 78.5084 125.102 77.6231C123.795 77.3039 122.493 76.9465 121.174 76.6954C120.906 76.6443 120.574 77.1039 120.246 77.1507C119.735 77.2231 119.024 77.338 118.726 77.0741C118.412 76.789 118.309 76.0442 118.407 75.559C118.854 73.3332 120.557 72.1586 123.17 72.316C125.536 72.4565 127.881 73.4439 130.264 72.2692C130.524 72.1416 131.422 72.5884 131.435 72.8097C131.477 73.4609 131.396 74.2397 131.056 74.7759C129.932 76.5634 128.553 78.1977 127.528 80.032C127.051 80.8789 126.762 82.7855 127.077 82.9558C128.353 83.6537 129.596 85.0709 131.426 83.9772C132.039 83.6112 132.967 83.7644 133.75 83.6835C133.733 84.4028 133.894 85.1859 133.665 85.8242C132.933 87.8586 131.426 88.8417 129.187 88.8204V88.8161Z" fill="white"/>
<path d="M116.109 74.8525C114.441 77.6146 112.926 79.9894 111.572 82.4493C111.164 83.1898 110.951 84.9007 111.074 84.9432C112.517 85.4497 114.028 85.8072 115.547 86.02C116.313 86.1264 117.135 85.8455 117.935 85.7391C117.88 86.5945 118.033 87.5393 117.726 88.2926C117.011 90.0375 115.59 90.8674 113.662 90.6887C112.253 90.5568 110.849 90.3227 109.44 90.3099C108.504 90.3014 107.563 90.6078 106.618 90.7525C106.061 90.8376 105.499 90.8845 104.937 90.9483C104.899 90.2801 104.61 89.4885 104.869 88.9693C105.682 87.3351 106.699 85.8029 107.648 84.241C107.942 83.7601 108.41 83.3388 108.555 82.8196C108.836 81.8279 109.393 80.1298 109.036 79.8873C107.887 79.0999 106.567 77.8997 104.865 79.1637C104.371 79.5298 103.478 79.3595 102.767 79.4361C102.75 78.7084 102.52 77.904 102.754 77.2699C103.503 75.2526 105.065 74.3716 107.227 74.4652C109.538 74.5674 111.875 76.0059 114.185 74.2908C114.441 74.1035 115.181 74.5674 116.105 74.8568L116.109 74.8525Z" fill="white"/>
<path d="M98.9622 89.6715C100.303 89.3141 101.822 88.582 102.077 88.8927C103.141 90.1823 102.346 91.5995 101.162 92.2506C99.8516 92.9741 98.0769 93.7402 96.8002 93.3954C95.5277 93.0507 94.0977 91.5271 93.6551 90.212C92.5783 87.0244 92.1102 83.641 91.2505 80.3767C90.8249 78.768 91.2335 77.8998 92.872 77.687C94.4424 77.4784 96.1746 76.8273 96.6427 79.3425C97.2087 82.3897 97.9109 85.4114 98.5749 88.4416C98.6898 88.9608 98.8941 89.4545 98.9622 89.6715Z" fill="white"/>
<path d="M175.968 87.3265C176.364 87.4159 176.432 87.4457 176.5 87.4415C177.373 87.4287 178.245 87.4074 179.113 87.3904C178.526 88.3522 178.164 89.7184 177.305 90.2035C174.066 92.025 170.389 89.6332 170.716 85.9349C171.027 82.4238 171.585 78.9297 172.151 75.4484C172.538 73.0778 174.364 73.8694 175.845 73.9546C177.398 74.0439 177.675 74.9249 177.458 76.274C176.93 79.5425 176.453 82.8196 175.972 86.0966C175.913 86.4881 175.964 86.8967 175.964 87.3223L175.968 87.3265Z" fill="white"/>
<path d="M175.385 124.272C173.142 124.229 171.295 122.301 171.295 120.003C171.295 117.569 173.185 115.735 175.628 115.807C178.037 115.879 179.786 117.799 179.684 120.254C179.586 122.591 177.747 124.314 175.389 124.272H175.385Z" fill="white"/>
<path d="M180.033 64.183C180.024 66.0131 178.683 67.3537 176.849 67.3707C174.704 67.3877 173.44 66.1195 173.449 63.9532C173.457 61.97 174.781 60.6251 176.726 60.6166C178.675 60.6081 180.041 62.0806 180.033 64.183Z" fill="white"/>
<path d="M91.0973 71.3542C89.1992 71.3542 87.8585 69.9029 87.9011 67.8942C87.9479 65.7662 89.1396 64.5959 91.242 64.6129C93.1358 64.6257 94.4722 66.0599 94.4722 68.0814C94.4722 70.1072 93.1869 71.3585 91.0973 71.3585V71.3542Z" fill="white"/>
<path d="M147.496 188.693C146.654 190.349 146.645 191.936 144.628 191.621C142.823 191.34 140.283 189.383 140.853 188.893C142.049 187.868 143.594 187.038 145.121 186.719C145.751 186.587 146.696 187.991 147.496 188.693Z" fill="white"/>
<path d="M114.279 186.867C115.994 188.055 117.79 188.668 118.326 189.851C118.833 190.974 117.186 191.864 115.922 191.834C114.386 191.796 113.432 190.813 113.475 189.212C113.492 188.591 113.883 187.978 114.283 186.872L114.279 186.867Z" fill="white"/>
<path d="M148.765 175.291C147.143 175.606 145.73 175.917 144.304 176.13C143.892 176.189 143.091 176.032 143.062 175.875C142.891 174.879 142.785 173.844 142.908 172.853C142.938 172.627 144.13 172.21 144.475 172.415C146.066 173.342 147.547 174.457 148.765 175.296V175.291Z" fill="white"/>
<path d="M117.977 194.175C113.33 194.051 109.142 197.06 104.388 196.205C108.959 195.745 113.16 193.013 117.977 194.175Z" fill="white"/>
<path d="M128.507 193.668C127.74 192.813 127.298 192.315 126.855 191.821C127.694 191.281 128.472 190.557 129.387 190.285C129.839 190.149 130.541 190.842 131.128 191.162C130.354 191.902 129.575 192.647 128.502 193.673L128.507 193.668Z" fill="white"/>
<path d="M141.832 181.148C142.266 181.799 142.977 182.424 143.045 183.11C143.096 183.599 142.283 184.174 141.853 184.71C141.325 184.127 140.593 183.62 140.342 182.939C140.185 182.505 140.746 181.811 140.985 181.233C141.266 181.203 141.547 181.173 141.827 181.148H141.832Z" fill="white"/>
<path d="M153.74 179.283C152.463 178.534 151.186 177.785 149.909 177.036C150.033 176.807 150.156 176.577 150.28 176.347C151.573 177.087 152.867 177.832 154.165 178.573C154.025 178.807 153.884 179.045 153.74 179.279V179.283Z" fill="white"/>
<path d="M157.527 194.307C157.183 194.886 156.944 195.609 156.442 195.988C156.204 196.167 155.468 195.677 154.553 195.345C155.659 194.652 156.332 194.226 157.004 193.805C157.178 193.975 157.353 194.141 157.527 194.311V194.307Z" fill="white"/>
<path d="M128.553 20.6028C129.808 20.6028 130.826 19.5853 130.826 18.3301C130.826 17.075 129.808 16.0575 128.553 16.0575C127.298 16.0575 126.281 17.075 126.281 18.3301C126.281 19.5853 127.298 20.6028 128.553 20.6028Z" fill="white"/>
<path d="M127.489 13.7423C126.668 11.5675 126.145 9.28637 125.664 7.0265C125.425 5.92422 125.025 4.80918 125.238 3.6686C125.425 2.30672 126.272 1.1023 127.489 0.310707C128.983 -0.65538 130.541 0.821413 131.269 1.98753C132.286 3.57923 131.894 5.34117 131.443 7.02224L131.081 8.69906C130.677 10.4099 130.251 12.0655 129.622 13.7338C129.277 14.7041 127.834 14.6913 127.494 13.7338L127.489 13.7423Z" fill="white"/>
<path d="M124.991 14.304C124.029 13.1549 122.987 12.074 121.769 11.2441C120.859 10.7121 119.893 10.5759 118.863 10.4056C118.701 10.3673 118.497 10.3546 118.365 10.2907L117.918 10.0737C117.522 9.88217 117.356 9.40551 117.548 9.00971C118.62 7.67336 120.684 7.64357 122.152 8.32026C123.523 8.95864 124.387 10.2609 124.868 11.6186C125.025 11.9037 125.906 15.0148 124.991 14.304Z" fill="white"/>
<path d="M131.826 14.1849C131.933 11.4229 133.533 8.14582 136.605 7.90323C137.584 7.70746 140.517 8.47778 139.576 9.86945C139.453 10.0482 139.053 10.1886 138.865 10.2908C138.282 10.461 137.572 10.5121 136.993 10.6568C134.963 11.0951 133.567 12.8018 132.239 14.3041C132.128 14.4913 131.822 14.402 131.83 14.1849H131.826Z" fill="white"/>
<path d="M43.0994 15.5085C48.4448 8.26923 58.0035 5.44332 66.6983 5.49439C75.7633 5.57951 83.1813 11.4526 91.1015 14.9935C93.6891 16.215 96.3065 17.3726 98.9877 18.3642C101.665 19.3133 104.414 20.3602 107.282 20.4198C104.397 20.8879 101.439 20.1517 98.6344 19.4963C92.9996 18.0322 87.5734 15.7766 82.3599 13.2401C79.7511 11.9889 77.2103 10.6738 74.6185 9.66091C65.1364 5.71995 50.4706 8.26497 43.0994 15.5085Z" fill="white"/>
<path d="M121.237 16.8576C121.365 16.8491 121.501 16.8065 121.629 16.8576C121.646 16.8661 121.655 16.8959 121.646 16.9129C121.216 17.2491 120.633 17.3555 120.131 17.5641C118.19 18.2195 116.22 18.7727 114.245 19.3132C106.342 21.6114 98.2259 23.1393 89.9737 23.2542C84.4794 23.3819 79.0063 23.1308 73.5332 22.4711C68.0474 21.7263 62.7871 20.4623 57.446 20.0197C48.5086 19.3473 38.1413 20.0708 30.9148 25.8843C27.9739 28.3613 25.646 31.8724 25.4502 35.792C25.2629 38.9712 26.4674 42.4738 29.3912 44.0314C33.1959 46.6531 38.6605 47.5383 42.5291 44.5592C38.8009 47.8958 32.9831 47.2914 28.9485 44.7549C24.2117 42.3972 23.2499 36.124 24.9438 31.5319C26.4503 27.5143 29.5997 24.2671 33.2725 22.1434C40.6352 18.0152 49.3683 17.33 57.6247 17.9386C63.0808 18.3429 68.4432 19.6537 73.8056 20.4155C76.4528 20.7517 79.168 20.9858 81.8535 21.1518C89.9226 21.6582 98.0727 21.4114 106.035 19.9559L114.054 18.4791C115.049 18.2705 123.212 16.8576 121.233 16.8576H121.237Z" fill="white"/>
<path d="M214.122 15.5085C206.755 8.26923 192.094 5.7157 182.603 9.66091C180.011 10.6738 177.47 11.9931 174.862 13.2401C169.644 15.7766 164.222 18.028 158.587 19.4963C155.782 20.1559 152.825 20.8879 149.939 20.4198C152.808 20.3602 155.561 19.3133 158.234 18.3642C160.915 17.3726 163.537 16.2107 166.12 14.9935C174.036 11.4526 181.458 5.57951 190.523 5.49439C199.218 5.44332 208.777 8.26923 214.122 15.5085Z" fill="white"/>
<path d="M135.988 16.8576C135.865 16.8576 135.733 16.8491 135.622 16.8959C135.614 16.8831 135.652 16.9257 135.69 16.9385C137.601 17.5343 141.159 18.062 143.168 18.4791L151.186 19.9559C159.149 21.4114 167.299 21.654 175.368 21.1518C178.054 20.9816 180.769 20.7517 183.416 20.4155C188.778 19.6537 194.141 18.3429 199.597 17.9386C207.853 17.3258 216.586 18.0152 223.949 22.1434C227.622 24.2714 230.771 27.5143 232.278 31.5319C233.972 36.124 233.01 42.4014 228.273 44.7549C224.234 47.2915 218.421 47.9 214.692 44.5592C218.561 47.5383 224.026 46.6531 227.83 44.0314C230.75 42.4695 231.963 38.9669 231.771 35.792C231.576 31.8724 229.252 28.3613 226.307 25.8843C219.085 20.0751 208.704 19.3473 199.776 20.0197C194.434 20.4623 189.174 21.7263 183.688 22.4711C178.215 23.135 172.742 23.3819 167.248 23.2542C159 23.135 150.88 21.6114 142.977 19.3133C141.904 19.0451 133.775 16.7384 135.988 16.8576Z" fill="white"/>
<path d="M128.745 244.845C130 244.845 131.017 243.828 131.017 242.573C131.017 241.318 130 240.3 128.745 240.3C127.49 240.3 126.472 241.318 126.472 242.573C126.472 243.828 127.49 244.845 128.745 244.845Z" fill="white"/>
<path d="M127.681 237.981C126.86 235.806 126.336 233.525 125.855 231.265C125.617 230.163 125.217 229.048 125.43 227.907C125.617 226.545 126.464 225.341 127.681 224.549C129.175 223.583 130.732 225.06 131.46 226.226C132.477 227.818 132.086 229.58 131.635 231.261L131.273 232.937C130.869 234.648 130.443 236.304 129.813 237.972C129.468 238.943 128.026 238.93 127.685 237.972L127.681 237.981Z" fill="white"/>
<path d="M125.178 238.547C124.217 237.398 123.174 236.317 121.957 235.487C121.046 234.955 120.08 234.819 119.05 234.648C118.888 234.61 118.684 234.597 118.552 234.533L118.105 234.316C117.709 234.125 117.543 233.648 117.735 233.252C118.807 231.916 120.871 231.886 122.34 232.563C123.71 233.201 124.574 234.504 125.055 235.861C125.212 236.146 126.093 239.257 125.178 238.547Z" fill="white"/>
<path d="M132.013 238.428C132.12 235.665 133.72 232.388 136.793 232.146C137.772 231.95 140.704 232.72 139.763 234.112C139.64 234.291 139.24 234.431 139.053 234.533C138.47 234.704 137.759 234.755 137.18 234.899C135.15 235.338 133.754 237.044 132.426 238.547C132.316 238.734 132.009 238.645 132.018 238.428H132.013Z" fill="white"/>
<path d="M43.0994 242.424C50.4663 249.663 65.1279 252.217 74.6185 248.271C77.2103 247.258 79.7511 245.939 82.3599 244.692C87.5777 242.156 92.9997 239.904 98.6344 238.436C101.439 237.776 104.397 237.044 107.282 237.513C104.414 237.572 101.66 238.619 98.9877 239.568C96.3065 240.56 93.6849 241.722 91.1015 242.939C83.1856 246.475 75.7633 252.353 66.6983 252.438C58.0035 252.489 48.4448 249.663 43.0994 242.424Z" fill="white"/>
<path d="M121.237 241.079C121.361 241.079 121.493 241.087 121.603 241.041C121.612 241.053 121.574 241.011 121.535 240.998C119.624 240.402 116.067 239.875 114.058 239.457L106.04 237.981C98.0769 236.525 89.9269 236.283 81.8577 236.785C79.1723 236.955 76.457 237.185 73.8099 237.521C68.4474 238.283 63.085 239.594 57.629 239.998C49.3726 240.611 40.6395 239.921 33.2768 235.793C29.604 233.665 26.4546 230.422 24.948 226.405C23.2542 221.813 24.216 215.535 28.9528 213.182C32.9916 210.645 38.8052 210.037 42.5333 213.377C38.6647 210.398 33.2002 211.283 29.3954 213.905C26.4759 215.467 25.263 218.97 25.4545 222.145C25.6502 226.064 27.974 229.575 30.919 232.052C38.1413 237.862 48.5214 238.589 57.4502 237.917C62.7914 237.474 68.0516 236.21 73.5375 235.465C79.0106 234.802 84.4836 234.555 89.978 234.682C98.2259 234.802 106.346 236.325 114.249 238.623C115.322 238.891 123.451 241.198 121.237 241.079Z" fill="white"/>
<path d="M214.122 242.424C208.777 249.663 199.218 252.489 190.523 252.438C181.458 252.353 174.04 246.48 166.12 242.939C163.532 241.717 160.915 240.56 158.234 239.568C155.557 238.619 152.808 237.572 149.939 237.513C152.825 237.044 155.783 237.781 158.587 238.436C164.222 239.9 169.648 242.156 174.862 244.692C177.471 245.943 180.011 247.258 182.603 248.271C192.085 252.212 206.751 249.667 214.122 242.424Z" fill="white"/>
<path d="M135.988 241.079C135.861 241.087 135.725 241.13 135.597 241.079C135.58 241.07 135.571 241.041 135.58 241.024C136.01 240.687 136.593 240.581 137.095 240.372C139.036 239.717 141.006 239.164 142.981 238.623C150.884 236.325 159 234.797 167.252 234.682C172.746 234.555 178.22 234.806 183.693 235.465C189.178 236.21 194.439 237.474 199.78 237.917C208.717 238.589 219.085 237.866 226.311 232.052C229.252 229.575 231.58 226.064 231.776 222.145C231.963 218.965 230.758 215.463 227.835 213.905C224.03 211.283 218.565 210.398 214.697 213.377C218.425 210.041 224.243 210.645 228.277 213.182C233.014 215.539 233.976 221.813 232.282 226.405C230.775 230.422 227.626 233.669 223.953 235.793C216.591 239.921 207.858 240.607 199.601 239.998C194.145 239.594 188.783 238.283 183.42 237.521C180.773 237.185 178.058 236.951 175.372 236.785C167.303 236.278 159.153 236.525 151.19 237.981L143.172 239.457C142.176 239.666 134.014 241.079 135.993 241.079H135.988Z" fill="white"/>
</g>
<defs>
<clipPath id="clip0_110_884">
<rect width="255" height="252.442" fill="white"/>
</clipPath>
</defs>
</svg>
