<svg width="30" height="30" viewBox="0 0 30 30" fill="none" xmlns="http://www.w3.org/2000/svg">
<path fill-rule="evenodd" clip-rule="evenodd" d="M14.9912 0C6.73721 0 0 6.73721 0 14.9912C0 23.2451 6.73721 29.9824 14.9912 29.9824C23.2451 29.9824 29.9824 23.2451 29.9824 14.9912C29.9824 6.73721 23.2628 0 14.9912 0ZM10.9877 19.0123C1.18166 8.62434 10.3175 5.18518 11.3051 6.89594L12.3104 10.0882C12.5044 10.6878 12.963 11.5697 12.3104 12.0988C10.2293 13.7037 11.3933 14.6384 13.2451 16.7372C15.3439 18.6067 16.2787 19.7531 17.8836 17.672C18.4303 17.0194 19.3122 17.478 19.8942 17.672L23.0864 18.6772C24.7972 19.6649 21.358 28.8007 10.97 18.9947L10.9877 19.0123Z" fill="#FFFFFF"/>
</svg>
