<svg width="30" height="31" viewBox="0 0 30 31" fill="none" xmlns="http://www.w3.org/2000/svg">
<g clip-path="url(#clip0_110_641)">
<path fill-rule="evenodd" clip-rule="evenodd" d="M14.9912 0.967041C6.73721 0.967041 0 7.70425 0 15.9582C0 23.5773 5.73192 29.8736 13.1041 30.8259V20.6849H10.0353V16.1875H13.1041V13.7536C13.1041 12.96 13.1922 12.1487 13.4039 11.3727C13.8095 9.8912 14.515 8.74482 15.6261 8.03935C17.037 7.08697 18.8889 6.9106 20.3351 6.9106C21.4638 6.9106 23.1041 7.15752 23.4921 7.28097V11.3727C22.716 11.3198 22.0106 11.3021 21.358 11.3374C21.1111 11.3374 20.8642 11.3727 20.6173 11.4256C18.3422 11.7783 18.4656 13.9653 18.4303 14.6355V16.2228H23.2451L22.4339 20.7201H18.4303V30.579C25.0441 29.0094 30 23.0658 30 15.9935C30 7.70426 23.2628 0.967041 14.9912 0.967041Z" fill="white"/>
</g>
<defs>
<clipPath id="clip0_110_641">
<rect width="30" height="29.8589" fill="white" transform="translate(0 0.967041)"/>
</clipPath>
</defs>
</svg>
