<svg width="120" height="119" viewBox="0 0 120 119" fill="none" xmlns="http://www.w3.org/2000/svg">
<g clip-path="url(#clip0_110_132)">
<rect width="120" height="118.796" fill="white"/>
<path d="M8.62789 60.1733C9.03646 63.578 9.47506 66.9787 9.84157 70.3894C10.0358 72.1919 9.89965 73.9924 9.33487 75.7288C9.0705 76.5399 9.26077 76.8583 10.126 77.1487C12.4071 77.9158 14.6162 78.8951 16.8813 79.7143C17.8927 80.0808 18.9642 80.3031 20.0217 80.5214C22.457 81.0261 24.7882 82.0896 27.3378 81.9734C29.1142 81.8933 30.7505 81.4887 31.5256 79.5901C31.6197 79.3598 31.848 79.1495 32.0663 79.0133C32.2165 78.9172 32.5069 78.8811 32.6431 78.9652C32.7913 79.0574 32.9475 79.3578 32.9015 79.502C32.6712 80.213 32.4188 80.922 32.0924 81.5949C31.133 83.5756 29.2765 84.0583 27.3458 84.1524C25.9979 84.2185 24.6621 84.1945 23.3182 83.4715C21.8722 82.6944 20.1779 82.3319 18.5536 81.9474C16.639 81.4927 14.9727 80.5394 13.2202 79.7283C11.7963 79.0694 10.2381 78.6728 8.704 78.3063C8.32547 78.2162 7.71262 78.5987 7.37816 78.9352C6.29667 80.0227 5.07297 80.7938 3.5769 81.1743C2.07282 81.5568 0.486629 80.7397 0.0800667 79.3017C-0.290446 77.9899 0.622817 76.2655 2.02876 75.9671C3.01613 75.7588 4.0796 75.7788 5.09701 75.8549C6.56904 75.9651 6.83141 75.7909 6.68921 74.3088C6.35074 70.7899 5.95419 67.2771 5.64176 63.7562C5.42546 61.3288 5.43147 58.9496 6.42484 56.6003C8.48369 51.7356 14.0674 51.9319 16.4567 54.5595C17.7245 55.9514 17.4821 58.6632 16.0181 59.5203C14.8525 60.2033 13.1161 59.4142 12.8597 58.0864C12.6535 57.0169 13.749 56.2498 14.9586 56.5943C15.211 56.6664 15.4954 56.6323 15.7658 56.6464C15.7117 56.3339 15.7457 55.9674 15.5915 55.7171C14.516 53.9727 11.4498 53.4139 10.0218 54.8198C8.8542 55.9714 8.59985 57.5636 8.61788 59.1719C8.62188 59.5043 8.65192 59.8388 8.66795 60.1712L8.62389 60.1773L8.62789 60.1733ZM3.94341 77.0666C3.94141 77.0466 3.93941 77.0266 3.9374 77.0065C3.44472 77.0706 2.924 77.0566 2.46737 77.2168C1.69029 77.4892 1.31377 78.084 1.45196 78.9412C1.58214 79.7603 2.27911 79.9726 2.86792 79.9166C3.55888 79.8525 4.31392 79.5901 4.86669 79.1795C5.31331 78.8471 5.50357 78.1661 5.80799 77.6414C5.28727 77.4492 4.76855 77.2549 4.24583 77.0706C4.1557 77.0386 4.04755 77.0666 3.94742 77.0666H3.94341Z" fill="black"/>
<path d="M43.7685 75.3561C45.7232 75.3782 47.5377 74.9155 48.7514 73.3213C50.0672 71.5929 49.945 69.0554 48.3088 67.317C46.7967 65.7108 44.9702 64.399 43.2658 62.977C41.8879 61.8274 40.3478 60.8361 39.1241 59.5423C37.3256 57.6416 36.2561 53.7863 38.7435 51.1767C40.3317 49.5104 42.4927 48.9676 44.7979 49.258C45.3847 49.3321 45.9435 49.6145 46.5283 49.7007C46.9269 49.7587 47.3835 49.7307 47.756 49.5885C48.497 49.3061 48.8876 49.4123 48.9777 50.2774C49.1479 51.9317 49.4023 53.578 49.5305 55.2363C49.5545 55.5547 49.23 56.1195 48.9617 56.1936C48.3769 56.3559 48.2006 55.8832 48.1706 55.3405C48.1345 54.6775 48.0444 54.0146 47.9663 53.3537C47.7921 51.8737 47.1832 51.1907 45.7072 50.8663C44.3152 50.5598 42.9313 50.4116 41.6796 51.3329C40.4399 52.2442 40.0233 53.7743 40.534 55.2523C41.1729 57.1089 42.721 58.1123 44.135 59.2699C46.3961 61.1225 48.6793 62.957 50.8202 64.9417C52.9392 66.9065 53.6261 70.904 51.8216 73.2713C50.626 74.8414 48.9056 75.6646 47.035 76.1492C44.4194 76.8262 41.7898 76.9904 39.3784 75.5344C36.4944 73.794 35.0304 69.6422 37.3576 66.7342C38.2709 65.5926 39.795 65.0899 41.2089 65.5346C42.6489 65.9892 43.4721 67.1207 43.5021 68.6869C43.5201 69.6743 42.5788 70.8519 41.6596 70.9921C40.3958 71.1844 39.3584 70.5695 38.9899 69.4059C38.7035 68.5027 39.7409 67.6194 40.8064 67.7997C41.1208 67.8538 41.4733 67.6915 41.8078 67.6275C41.5474 67.3571 41.3371 66.9705 41.0207 66.8384C39.7149 66.2916 37.9785 67.4172 37.638 68.9733C37.0292 71.7612 39.1421 74.6772 42.1763 75.2099C42.699 75.3021 43.2358 75.3101 43.7685 75.3561Z" fill="black"/>
<path d="M30.356 25.6956C31.7038 25.6956 32.7373 25.6355 33.7607 25.7076C36.2361 25.8838 37.7182 27.3999 38.6715 29.5409C38.9258 30.1137 39.1001 30.7345 39.2302 31.3494C39.795 34.0331 37.9084 36.2261 35.4891 37.4018C34.8962 37.6902 34.2013 37.7763 33.6225 38.0887C33.3361 38.2429 33.2079 38.6936 33.0116 39.014C32.9996 39.034 33.0257 39.0781 33.0317 39.1101C33.4803 41.2731 34.0771 41.4494 35.8536 40.0194C36.142 39.7871 36.6407 39.8151 37.0412 39.721C36.873 40.0975 36.7949 40.5681 36.5185 40.8305C36.0679 41.2591 35.5111 41.5956 34.9583 41.89C34.3435 42.2164 34.1572 42.611 34.4296 43.2699C34.684 43.8827 34.8862 44.5196 35.0705 45.1565C35.3008 45.9556 35.8015 46.1258 36.5265 45.8515C36.7428 45.7693 36.9571 45.5971 37.1674 45.6051C37.4157 45.6151 37.6601 45.7733 37.9064 45.8695C37.7963 46.1118 37.7442 46.4943 37.5639 46.5725C36.6487 46.965 35.7034 47.2955 34.7601 47.6179C33.6265 48.0044 32.4909 48.385 31.3373 48.7034C31.115 48.7655 30.8086 48.5211 30.5402 48.417C30.7004 48.1627 30.8346 47.8843 31.0349 47.664C31.127 47.5618 31.3473 47.5798 31.5076 47.5398C32.571 47.2774 32.8034 46.8348 32.4228 45.7994C32.4008 45.7373 32.3607 45.6792 32.3447 45.6151C31.9001 43.8367 31.2392 42.617 28.9901 42.3366C26.771 42.0602 24.9665 40.5321 23.8229 38.4432C21.4416 34.0952 23.1941 28.7858 27.6763 26.713C28.1069 26.5147 28.4734 26.0621 28.7357 25.6435C29.1743 24.9405 29.4547 24.1414 29.9013 23.4445C30.0736 23.1761 30.5142 23.082 30.8326 22.9077C30.8867 23.2742 31.0429 23.6608 30.9728 24.0012C30.8607 24.548 30.5983 25.0667 30.362 25.6956H30.356ZM27.6983 27.9487C25.7115 29.0682 24.5059 30.5423 24.0893 32.517C23.2321 36.5947 25.3691 40.3879 29.647 41.5135C29.9394 41.5896 30.362 41.5956 30.5663 41.4333C30.7085 41.3212 30.6263 40.8565 30.5623 40.5681C30.4621 40.1195 30.2959 39.6849 30.1477 39.2483C29.0321 35.9818 27.7083 32.7633 27.9146 29.1984C27.9346 28.8339 27.7924 28.4594 27.7003 27.9487H27.6983ZM31.4114 27.2077C30.1277 27.1876 29.9354 27.418 29.9674 28.7218C30.0355 31.4475 31.1891 33.8749 32.0723 36.3723C32.1685 36.6447 32.7813 36.9531 33.0877 36.8931C34.7681 36.5706 36.7348 35.2588 36.4003 32.9837C36.2181 31.7339 35.7715 30.4702 35.1907 29.3426C34.4376 27.8806 33.0637 27.2177 31.4094 27.2077H31.4114Z" fill="black"/>
<path d="M46.995 96.3471C46.995 96.5794 46.981 96.8137 46.997 97.0461C47.0431 97.703 46.9169 98.2617 46.1739 98.44C45.4589 98.6122 44.5517 98.1215 44.3193 97.4366C44.2352 97.1903 44.1691 96.9139 44.1892 96.6575C44.4095 93.8777 45.3968 91.5164 47.7881 89.8621C51.1788 87.5149 54.6176 85.2357 58.4709 83.7316C60.2494 83.0367 62.168 82.6862 64.0406 82.2576C64.6815 82.1114 65.1041 81.9832 65.2903 81.2402C65.6989 79.6159 66.9827 78.957 68.4147 79.8423C70.4395 81.094 72.3822 82.5119 74.2107 84.0381C76.3997 85.8646 78.5327 87.7812 80.4894 89.8501C81.5789 91.0017 82.0375 92.6139 81.8192 94.2762C81.669 95.4178 80.9861 96.0587 79.8445 95.9525C78.4325 95.8244 77.0466 95.4559 75.6387 95.2636C72.284 94.8029 68.9274 94.3263 65.5607 93.9658C63.3777 93.7335 61.1767 93.6554 58.9796 93.5873C57.9862 93.5572 56.9849 93.6954 55.9935 93.8036C55.675 93.8376 55.3105 93.9438 55.0742 94.144C54.4193 94.7008 53.8485 94.9171 53.2176 94.108C53.0875 93.9418 52.737 93.8757 52.4906 93.8837C51.1928 93.9197 49.891 93.9578 48.5973 94.0639C47.0391 94.1901 46.8388 94.5045 46.999 96.3471H46.995ZM62.6607 83.6195C62.9771 83.7837 63.2055 83.8959 63.4278 84.02C64.345 84.5367 64.7877 86.187 64.2269 86.9901C63.1334 88.5583 59.5043 88.9509 58.1585 87.585C57.9442 87.3667 57.8921 86.6937 58.0664 86.4394C58.539 85.7584 59.1759 85.1917 59.7467 84.5788L59.5965 84.2784C59.0077 84.4687 58.3748 84.5768 57.836 84.8632C55.7572 85.9667 53.6522 87.0382 51.6715 88.302C50.6761 88.9368 50.2035 90.3828 48.6754 90.2166C48.6513 90.2146 48.6233 90.2547 48.5953 90.2727C46.1759 91.6706 45.3688 93.9618 45.1605 96.5574C45.1425 96.7777 45.509 97.026 45.6972 97.2624C45.8975 97.0821 46.238 96.9259 46.272 96.7196C46.3642 96.1668 46.3341 95.592 46.3381 95.0253C46.3421 94.3103 46.6005 93.6854 47.3615 93.6654C49.7088 93.6053 52.0741 92.2875 54.4894 93.8276C54.8539 92.1773 55.9875 92.0091 57.3934 92.1112C58.9195 92.2214 60.4597 92.1252 61.9938 92.1433C62.7889 92.1513 63.7142 91.8769 64.0687 93.0045C64.1047 93.1226 64.333 93.2428 64.4772 93.2528C66.0073 93.359 67.5395 93.4431 69.0696 93.5352C69.0756 93.4371 69.0816 93.3369 69.0876 93.2388C67.6336 93.1146 66.1776 92.9904 64.7236 92.8683C64.7236 92.7601 64.7256 92.65 64.7276 92.5418C64.8898 92.4737 65.058 92.3315 65.2142 92.3455C68.2905 92.6199 71.3668 92.9083 74.441 93.2027C75.6767 93.3209 75.7548 93.2348 75.3503 92.0772C74.8155 90.5431 75.2541 89.3774 76.6961 88.5763C77.4131 88.1778 77.3671 87.8013 76.7863 87.2846C75.2722 85.9407 73.8662 84.4626 72.272 83.2269C70.9882 82.2296 69.5122 81.4685 68.0782 80.6794C67.5475 80.387 66.8966 80.351 66.496 81.0179C66.0774 81.7148 65.8051 82.4258 66.5441 83.0907C67.185 83.6675 67.8118 84.2644 68.4988 84.7791C70.3133 86.141 72.0817 87.5429 73.3375 89.4716C73.5538 89.802 73.6679 90.1986 73.8282 90.5651C73.716 90.6392 73.6018 90.7133 73.4897 90.7874C73.1973 90.4409 72.9129 90.0904 72.6145 89.75C71.8594 88.8868 71.1685 87.9475 70.3213 87.1864C68.8513 85.8646 67.2671 84.6709 65.759 83.3892C65.0881 82.8184 63.4378 82.8324 62.6567 83.6155L62.6607 83.6195ZM77.4412 93.9177C76.9264 93.9177 76.4658 93.9257 76.0072 93.9157C75.5726 93.9057 75.14 93.8737 74.7054 93.8496C74.6934 93.9758 74.6833 94.102 74.6713 94.2282C75.2361 94.3623 75.7969 94.5346 76.3697 94.6227C77.305 94.7649 78.2463 94.9031 79.1896 94.9391C79.5361 94.9532 80.0528 94.7709 80.217 94.5065C81.0441 93.1867 80.4834 90.3989 79.2677 89.4035C78.6829 88.9248 77.0947 88.9829 76.4358 89.5076C75.7949 90.0163 75.5385 91.0798 75.9851 91.8609C76.3817 92.5558 76.9104 93.1787 77.4432 93.9157L77.4412 93.9177Z" fill="black"/>
<path d="M108.831 67.7098C109.043 67.5095 109.131 67.4554 109.181 67.3753C109.484 66.8826 109.836 66.2578 110.449 66.7484C110.641 66.9026 110.445 67.8199 110.174 68.2145C109.616 69.0356 108.787 69.5964 107.721 69.364C106.305 69.0556 105.726 68.3787 105.55 67.0028C105.344 65.3946 105.18 63.7803 104.939 62.1761C104.791 61.1927 104.22 60.9704 103.371 61.4912C102.043 62.3083 101.667 63.522 101.869 65.006C102.061 66.414 102.237 67.8279 102.344 69.2439C102.364 69.5103 102.071 69.9909 101.841 70.051C101.208 70.2172 100.527 70.2673 99.8722 70.2393C99.682 70.2312 99.3835 69.8127 99.3535 69.5563C99.1172 67.5155 98.9449 65.4687 98.7206 63.4258C98.6806 63.0613 98.4803 62.7149 98.3541 62.3604C98.0697 62.5666 97.8054 62.817 97.4929 62.9632C97.2706 63.0673 96.9221 63.1334 96.7419 63.0253C96.5616 62.9191 96.3834 62.5406 96.4355 62.3443C96.9201 60.5459 99.2093 59.7307 100.689 60.8503C101.294 61.3069 101.721 61.2729 102.254 60.7822C103.251 59.8649 104.469 59.6005 105.78 59.7968C107.1 59.9951 108.015 61.0265 108.15 62.3724C108.304 63.9285 108.472 65.4847 108.644 67.0408C108.664 67.2211 108.742 67.3973 108.833 67.7078L108.831 67.7098Z" fill="black"/>
<path d="M25.363 76.612C25.7175 76.1694 25.8117 75.9731 25.9659 75.875C26.2683 75.6847 26.6048 75.5485 26.9272 75.3883C26.9913 75.7809 27.2076 76.2275 27.0914 76.5559C26.5687 78.038 24.7802 78.5927 23.3703 77.8798C23.0118 77.6995 22.3208 77.7215 22.0204 77.9579C19.2566 80.1189 15.2951 77.7336 15.1048 74.2768C15.0167 72.6585 15.205 71.1585 16.4487 69.9488C17.422 69.0035 18.5536 68.659 19.8975 68.6991C21.0431 68.7331 22.2007 68.629 23.3422 68.5008C24.1373 68.4107 24.4378 68.7131 24.4998 69.4641C24.6561 71.3587 24.8363 73.2514 25.0286 75.142C25.0706 75.5445 25.2068 75.9391 25.365 76.612H25.363ZM21.9764 75.17C21.8422 73.9824 21.704 72.7947 21.5778 71.6071C21.4857 70.7379 20.8848 70.1911 20.1518 70.2011C19.6772 70.2071 18.9802 70.7419 18.7799 71.2085C18.0729 72.8548 18.2412 74.5271 19.1524 76.0813C19.543 76.7482 20.0998 77.2229 20.9589 76.9164C21.7781 76.626 22.0164 75.9731 21.9764 75.17Z" fill="black"/>
<path d="M70.9541 71.8857C71.2445 71.423 71.3166 71.2228 71.4568 71.1046C71.6992 70.9003 71.9856 70.7481 72.2539 70.5739C72.33 70.9164 72.5543 71.3069 72.4582 71.5893C71.9755 73.0052 70.7539 73.6381 69.5242 73.2336C68.5428 72.9111 67.8438 73.0133 66.8705 73.4458C64.1768 74.6395 61.7995 73.6401 60.716 70.4938C59.7927 67.8081 61.2407 64.7919 63.7201 64.0909C63.9124 64.0368 64.1087 63.9808 64.3069 63.9707C65.9252 63.8866 67.5434 63.8346 69.1596 63.7304C69.9447 63.6803 69.8887 64.1991 69.9367 64.7018C70.131 66.6885 70.3253 68.6773 70.5476 70.662C70.5836 70.9864 70.7539 71.2969 70.9541 71.8857ZM63.626 68.489C63.9885 69.5204 64.2228 70.5759 64.7375 71.4691C64.9759 71.8817 65.783 72.1981 66.3017 72.1581C66.9806 72.106 67.4693 71.5092 67.4112 70.7281C67.3111 69.3702 67.279 67.9903 66.9806 66.6745C66.8665 66.1738 66.1455 65.7152 65.5967 65.4568C65.3704 65.3506 64.6995 65.7332 64.5312 66.0516C64.1427 66.7846 63.9364 67.6158 63.626 68.489Z" fill="black"/>
<path d="M58.1305 72.9989C58.4249 72.6244 58.5811 72.3119 58.8334 72.1377C59.0437 71.9935 59.4403 71.8913 59.6225 71.9975C59.8048 72.1036 59.9309 72.5062 59.8929 72.7505C59.7186 73.846 58.497 74.7152 57.2052 74.7233C55.9615 74.7313 54.9521 74.0083 54.7698 72.8246C54.4974 71.0482 54.3092 69.2597 54.1129 67.4712C54.0508 66.9044 54.0007 66.4298 53.2637 66.3537C53.0434 66.3316 52.721 66.0052 52.6949 65.7889C52.6709 65.5846 52.9273 65.2281 53.1436 65.138C53.7504 64.8876 53.7684 64.4591 53.7143 63.9183C53.5361 62.0958 53.4059 60.2693 53.2137 58.4487C53.1396 57.7518 53.45 57.4454 54.0708 57.3693C54.4994 57.3152 54.9721 57.203 55.3566 57.3292C55.7111 57.4454 56.1918 57.8099 56.2398 58.1223C56.5142 59.8947 56.7345 61.6812 56.8467 63.4697C56.8967 64.2768 57.111 64.5952 57.9422 64.6193C58.3427 64.6313 58.7353 64.9858 59.1318 65.1861C58.7693 65.4424 58.3868 65.6767 58.0483 65.9631C57.7359 66.2295 57.2092 66.57 57.2292 66.8444C57.3714 68.733 57.6318 70.6136 57.8641 72.4962C57.8781 72.6143 57.9802 72.7225 58.1264 72.9929L58.1305 72.9989Z" fill="black"/>
<path d="M120 66.424C118.604 68.3747 116.249 69.1738 114.22 68.3867C111.534 67.3453 110.246 65.5268 110.625 63.0093C111.126 59.6847 114.114 58.0224 117.108 58.7514C119.135 59.2441 119.696 61.7696 118.131 63.2817C117.45 63.9386 116.535 64.3471 115.774 64.9299C115.42 65.2003 114.935 65.6249 114.939 65.9714C114.949 66.7184 115.916 67.4234 116.579 67.2011C117.248 66.9768 117.895 66.5902 118.454 66.1496C119.305 65.4787 119.443 65.4627 119.996 66.424H120ZM114.134 62.9752C114.1 63.7082 114.5 63.9846 115.075 63.7323C115.792 63.4178 116.545 63.0293 117.062 62.4685C117.424 62.078 117.655 61.2689 117.5 60.7902C117.374 60.3977 116.619 60.0972 116.093 59.9691C115.351 59.7888 114.925 60.3396 114.701 60.9725C114.47 61.6254 114.32 62.3063 114.134 62.9752Z" fill="black"/>
<path d="M96.7777 66.1295C96.5194 68.619 95.2997 70.7439 92.632 71.0904C90.8756 71.3187 89.6338 70.3274 88.6645 68.9515C87.1544 66.8045 87.4628 63.8644 89.3935 62.0699C91.4784 60.1313 95.2616 61.1587 96.0848 63.8824C96.3111 64.6335 96.5474 65.3805 96.7777 66.1295ZM95.504 66.458C95.3818 65.1382 94.9412 64.0867 94.074 63.2275C93.1126 62.2742 91.923 62.5446 91.4884 63.8164C90.9356 65.4306 91.206 67.0028 91.9831 68.4588C92.612 69.6384 93.9238 69.6504 94.6227 68.5088C95.0073 67.882 95.2156 67.147 95.504 66.46V66.458Z" fill="black"/>
<path d="M92.4078 43.1075C93.0727 43.1836 93.4872 43.2317 93.9018 43.2777C93.6154 43.6803 93.4172 44.2491 93.0286 44.4493C92.1874 44.8799 91.3343 44.8138 90.5452 44.1149C90.2247 43.8325 89.6559 43.6402 89.2374 43.6943C87.2787 43.9466 86.0229 43.0174 85.4241 41.7796C84.5969 40.0693 85.1197 37.8963 86.5456 36.5724C87.7233 35.4789 89.1733 35.4148 90.7955 36.244C91.4184 36.5624 92.1594 36.6746 92.8604 36.8028C93.6475 36.947 93.8457 37.3836 93.6495 38.0905C93.295 39.3703 92.9205 40.6461 92.584 41.9319C92.4738 42.3544 92.4538 42.8031 92.4098 43.1095L92.4078 43.1075ZM87.4028 40.4438C87.4669 40.4879 87.533 40.5299 87.5971 40.574C87.6852 40.9625 87.6832 41.4091 87.8855 41.7216C88.1118 42.07 88.5364 42.5327 88.8548 42.5167C89.2494 42.4986 89.8282 42.1221 89.9704 41.7596C90.3689 40.7442 90.6754 39.6707 90.8276 38.5912C90.8857 38.1827 90.5292 37.5318 90.1667 37.3095C89.8923 37.1412 89.0952 37.3315 88.9009 37.6159C88.3041 38.4931 87.8855 39.4925 87.3988 40.4438H87.4028Z" fill="black"/>
<path d="M76.8484 66.4241C76.4218 66.1217 76.1274 65.9094 75.829 65.7031C75.148 65.2305 74.5071 65.2044 73.8182 65.7472C73.5839 65.9314 73.0591 66.0496 72.8769 65.9154C72.6526 65.7472 72.5404 65.2785 72.5664 64.9521C72.6466 63.9006 73.4837 63.0434 74.5752 62.9393C75.1921 62.8812 75.837 62.9653 76.4518 63.0815C77.4332 63.2677 78.3845 63.5622 79.3378 62.9153C79.5101 62.7971 79.9907 62.9493 80.193 63.1296C80.3152 63.2377 80.2651 63.7003 80.1349 63.9046C79.2817 65.2525 78.3865 66.5743 77.5013 67.9022C76.8904 68.8174 76.9705 68.9756 77.9178 69.4403C78.8431 69.8929 79.6442 70.3135 80.6096 69.4163C81.0542 69.0037 81.659 69.5805 81.5288 70.3335C81.2925 71.7074 80.0889 72.5906 78.5407 72.4164C77.7236 72.3243 76.9185 72.09 76.1013 72.0399C75.6067 72.0098 75.098 72.2241 74.5933 72.2982C74.2868 72.3443 73.9744 72.3323 73.664 72.3483C73.688 72.0178 73.6019 71.6213 73.7541 71.367C74.5532 70.0291 75.4164 68.7273 76.2515 67.4115C76.4438 67.1091 76.6221 66.7966 76.8464 66.4221L76.8484 66.4241Z" fill="black"/>
<path d="M71.3306 39.6751C71.0943 39.9675 70.904 40.3139 70.6176 40.5423C68.7811 42.0003 65.9091 41.5497 64.5412 39.613C63.2134 37.7344 63.68 35.0146 65.793 33.9191C66.7963 33.3984 68.2143 33.2782 69.3439 33.4985C71.0082 33.823 71.3647 36.1402 70.0288 37.2217C69.4921 37.6563 68.8612 37.9807 68.2443 38.3052C67.7016 38.5916 66.9245 38.6677 67.3711 39.605C67.6816 40.2559 68.4927 40.4862 69.2457 40.1077C69.5121 39.9735 69.7344 39.7512 70.0068 39.639C70.3593 39.4948 70.7398 39.4187 71.1103 39.3146C71.1844 39.4367 71.2585 39.5569 71.3326 39.6791L71.3306 39.6751ZM68.6649 34.3016C67.6335 34.3637 67.3171 35.0006 67.1608 35.7036C67.0507 36.2043 67.1048 36.741 67.0867 37.2637C67.6235 37.0995 68.1662 36.9453 68.697 36.763C68.8812 36.7009 69.1296 36.6088 69.1957 36.4626C69.3899 36.03 69.6763 35.5333 69.6022 35.1188C69.5441 34.8003 68.9954 34.57 68.6649 34.3016Z" fill="black"/>
<path d="M85.352 68.4407C85.368 68.707 85.354 68.9794 85.4121 69.2358C85.4622 69.4681 85.5923 69.6824 85.6865 69.9047C85.8888 69.7765 86.079 69.6163 86.2973 69.5282C86.6218 69.398 86.9642 69.3219 87.3007 69.2217C87.3307 69.5362 87.4729 69.8947 87.3708 70.159C86.9622 71.2205 85.8567 71.9435 84.9134 71.8514C83.6356 71.7252 82.6222 70.878 82.436 69.5041C82.1496 67.3972 82.0154 65.2683 81.8071 63.1493C81.753 62.6066 81.9894 62.3262 82.5241 62.2982C84.9274 62.168 84.6611 61.7975 84.9535 64.0746C85.0456 64.7996 85.1137 65.5286 85.1878 66.2576C85.2619 66.9847 85.332 67.7117 85.4041 68.4367C85.3861 68.4367 85.37 68.4407 85.352 68.4427V68.4407Z" fill="black"/>
<path d="M73.2674 35.277C72.7006 35.277 72.264 35.277 71.8274 35.277C72.0677 34.8084 72.1999 34.1915 72.5804 33.9131C72.981 33.6207 73.6159 33.5767 74.1526 33.5647C75.0078 33.5426 75.867 33.6968 76.7222 33.6668C78.1581 33.6167 79.4339 34.502 79.47 35.6636C79.488 36.2304 79.4419 36.7811 78.7169 36.8432C78.022 36.9013 77.3671 36.8051 77.1187 35.992C77.0807 35.8658 77.1127 35.6996 77.0426 35.6035C76.8764 35.3752 76.6661 35.1749 76.4738 34.9646C76.2876 35.2009 75.9651 35.4212 75.9411 35.6736C75.7829 37.2958 75.6607 38.9241 75.5866 40.5523C75.5485 41.3875 75.2481 41.758 74.3649 41.6979C73.1352 41.6138 73.0371 41.5257 73.1232 40.2579C73.2213 38.7959 73.2914 37.3319 73.3555 35.8678C73.3655 35.6255 73.2854 35.3812 73.2674 35.273V35.277Z" fill="black"/>
<path d="M60.7939 41.7959C60.2772 41.6838 59.7645 41.5015 59.2438 41.4755C58.675 41.4474 58.1002 41.5696 57.5274 41.6117C57.227 41.6337 56.9266 41.6257 56.6262 41.6317C56.6622 41.2972 56.5981 40.9047 56.7523 40.6363C57.3111 39.661 57.974 38.7437 58.5328 37.7683C58.7391 37.4078 58.7631 36.9452 58.8713 36.5286C58.2564 36.3784 57.6436 36.2102 57.0227 36.092C56.8965 36.068 56.7403 36.2843 56.5861 36.3063C56.3458 36.3404 56.0113 36.3944 55.8711 36.2703C55.7229 36.1361 55.6749 35.7856 55.7209 35.5573C55.9312 34.5098 56.7323 33.9571 57.962 34.0312C59.0756 34.0973 60.1791 34.5619 61.3006 34.0091C61.4228 33.9491 61.8454 34.1593 61.8514 34.2635C61.8714 34.5699 61.8334 34.9364 61.6732 35.1888C61.1444 36.0299 60.4955 36.799 60.0129 37.6622C59.7885 38.0607 59.6524 38.958 59.8006 39.0381C60.4014 39.3665 60.9862 40.0335 61.8474 39.5188C62.1358 39.3465 62.5724 39.4186 62.9409 39.3806C62.9329 39.719 63.009 40.0875 62.9009 40.388C62.5564 41.3453 61.8474 41.8079 60.7939 41.7979V41.7959Z" fill="black"/>
<path d="M54.6395 35.2247C53.8545 36.5245 53.1415 37.642 52.5046 38.7996C52.3123 39.1481 52.2122 39.9532 52.2703 39.9732C52.9492 40.2116 53.6602 40.3798 54.3752 40.4799C54.7357 40.53 55.1222 40.3978 55.4987 40.3478C55.4727 40.7503 55.5448 41.1949 55.4006 41.5494C55.0641 42.3706 54.3952 42.7611 53.4879 42.677C52.825 42.6149 52.1641 42.5047 51.5012 42.4987C51.0606 42.4947 50.618 42.6389 50.1734 42.707C49.911 42.7471 49.6466 42.7691 49.3823 42.7991C49.3642 42.4847 49.2281 42.1122 49.3502 41.8679C49.7327 41.0988 50.2114 40.3778 50.658 39.6428C50.7962 39.4165 51.0165 39.2182 51.0846 38.9739C51.2168 38.5072 51.4792 37.7081 51.3109 37.5939C50.7702 37.2234 50.1493 36.6586 49.3482 37.2535C49.1159 37.4257 48.6953 37.3456 48.3609 37.3816C48.3528 37.0392 48.2447 36.6607 48.3548 36.3622C48.7073 35.4129 49.4423 34.9984 50.4598 35.0424C51.5473 35.0905 52.6468 35.7674 53.7343 34.9603C53.8544 34.8722 54.2029 35.0905 54.6375 35.2267L54.6395 35.2247Z" fill="black"/>
<path d="M46.5705 42.1986C47.2014 42.0304 47.9164 41.6859 48.0365 41.8321C48.5372 42.439 48.1627 43.1059 47.6059 43.4123C46.9891 43.7528 46.1539 44.1133 45.5531 43.9511C44.9543 43.7888 44.2813 43.0718 44.073 42.453C43.5663 40.9529 43.346 39.3607 42.9415 37.8246C42.7412 37.0675 42.9335 36.659 43.7045 36.5588C44.4435 36.4607 45.2587 36.1543 45.479 37.3379C45.7453 38.7719 46.0758 40.1939 46.3882 41.6198C46.4423 41.8642 46.5384 42.0965 46.5705 42.1986Z" fill="black"/>
<path d="M82.8084 41.0947C82.9947 41.1367 83.0267 41.1508 83.0588 41.1488C83.4693 41.1428 83.8799 41.1327 84.2885 41.1247C84.0121 41.5774 83.8418 42.2202 83.4373 42.4486C81.9132 43.3057 80.1828 42.1802 80.337 40.4398C80.4832 38.7875 80.7456 37.1432 81.0119 35.505C81.1942 34.3894 82.0534 34.7619 82.7503 34.802C83.4814 34.844 83.6115 35.2586 83.5094 35.8935C83.261 37.4316 83.0367 38.9738 82.8104 40.5159C82.7824 40.7001 82.8064 40.8924 82.8064 41.0927L82.8084 41.0947Z" fill="black"/>
<path d="M82.534 58.4811C81.4786 58.461 80.6094 57.5538 80.6094 56.4723C80.6094 55.3267 81.4986 54.4635 82.6482 54.4976C83.7818 54.5316 84.6049 55.4349 84.5568 56.5905C84.5108 57.69 83.6456 58.5011 82.536 58.4811H82.534Z" fill="black"/>
<path d="M84.7211 30.2037C84.7171 31.0649 84.0862 31.6958 83.223 31.7038C82.2136 31.7118 81.6188 31.115 81.6228 30.0956C81.6268 29.1623 82.2497 28.5294 83.165 28.5254C84.0822 28.5214 84.7251 29.2144 84.7211 30.2037Z" fill="black"/>
<path d="M42.8693 33.5782C41.9761 33.5782 41.3452 32.8953 41.3652 31.95C41.3872 30.9486 41.948 30.3978 42.9374 30.4058C43.8286 30.4119 44.4575 31.0868 44.4575 32.0381C44.4575 32.9914 43.8527 33.5802 42.8693 33.5802V33.5782Z" fill="black"/>
<path d="M69.4099 88.7966C69.0133 89.5757 69.0093 90.3228 68.06 90.1746C67.2108 90.0424 66.0152 89.1211 66.2835 88.8908C66.8463 88.4081 67.5733 88.0176 68.2923 87.8674C68.5887 87.8053 69.0333 88.4662 69.4099 88.7966Z" fill="black"/>
<path d="M53.7783 87.9375C54.5855 88.4963 55.4306 88.7847 55.683 89.3414C55.9213 89.8702 55.1462 90.2888 54.5514 90.2747C53.8284 90.2567 53.3798 89.7941 53.3998 89.041C53.4078 88.7486 53.5921 88.4602 53.7803 87.9395L53.7783 87.9375Z" fill="black"/>
<path d="M70.0068 82.49C69.2438 82.6382 68.5788 82.7844 67.9079 82.8845C67.7137 82.9126 67.3371 82.8385 67.3231 82.7644C67.243 82.2957 67.1929 81.809 67.251 81.3424C67.265 81.2362 67.8258 81.04 67.988 81.1361C68.7371 81.5727 69.434 82.0974 70.0068 82.492V82.49Z" fill="black"/>
<path d="M55.5189 91.3764C53.3318 91.3184 51.3611 92.7343 49.124 92.3318C51.275 92.1155 53.2517 90.8297 55.5189 91.3764Z" fill="black"/>
<path d="M60.4736 91.138C60.1131 90.7355 59.9048 90.5012 59.6965 90.2688C60.0911 90.0145 60.4576 89.674 60.8882 89.5458C61.1005 89.4817 61.4309 89.8082 61.7073 89.9584C61.3428 90.3069 60.9763 90.6574 60.4716 91.14L60.4736 91.138Z" fill="black"/>
<path d="M66.7444 85.2461C66.9487 85.5525 67.2831 85.8469 67.3152 86.1694C67.3392 86.3997 66.9567 86.6701 66.7544 86.9224C66.5061 86.648 66.1616 86.4097 66.0434 86.0893C65.9693 85.885 66.2337 85.5585 66.3458 85.2861C66.478 85.2721 66.6102 85.2581 66.7424 85.2461H66.7444Z" fill="black"/>
<path d="M72.3481 84.3687C71.7473 84.0162 71.1465 83.6638 70.5457 83.3113C70.6037 83.2031 70.6618 83.095 70.7199 82.9868C71.3287 83.3353 71.9376 83.6858 72.5484 84.0343C72.4823 84.1444 72.4162 84.2566 72.3481 84.3667V84.3687Z" fill="black"/>
<path d="M74.1304 91.4385C73.9682 91.7109 73.856 92.0513 73.6197 92.2296C73.5075 92.3137 73.1611 92.0834 72.7305 91.9272C73.2512 91.6007 73.5676 91.4004 73.8841 91.2021C73.9662 91.2823 74.0483 91.3604 74.1304 91.4405V91.4385Z" fill="black"/>
<path d="M60.4957 9.69511C61.0864 9.69511 61.5652 9.21629 61.5652 8.62563C61.5652 8.03497 61.0864 7.55615 60.4957 7.55615C59.9051 7.55615 59.4263 8.03497 59.4263 8.62563C59.4263 9.21629 59.9051 9.69511 60.4957 9.69511Z" fill="black"/>
<path d="M59.9951 6.46682C59.6086 5.4434 59.3622 4.36991 59.1359 3.30644C59.0237 2.78773 58.8355 2.263 58.9356 1.72626C59.0237 1.08537 59.4223 0.518587 59.9951 0.146071C60.6981 -0.308558 61.4311 0.386404 61.7735 0.935163C62.2522 1.6842 62.068 2.51335 61.8557 3.30444L61.6854 4.09353C61.4952 4.89865 61.2949 5.67772 60.9985 6.46281C60.8363 6.91944 60.1573 6.91343 59.9971 6.46281L59.9951 6.46682Z" fill="black"/>
<path d="M58.8194 6.7314C58.3667 6.19065 57.876 5.68195 57.3033 5.29141C56.8747 5.04106 56.42 4.97697 55.9354 4.89686C55.8593 4.87883 55.7631 4.87283 55.701 4.84278L55.4908 4.74064C55.3045 4.65052 55.2264 4.42621 55.3165 4.23995C55.8212 3.61108 56.7925 3.59706 57.4835 3.9155C58.1284 4.21592 58.535 4.82877 58.7613 5.46765C58.8354 5.60183 59.25 7.06586 58.8194 6.7314Z" fill="black"/>
<path d="M62.0359 6.67534C62.086 5.37555 62.839 3.83341 64.285 3.71925C64.7456 3.62713 66.1255 3.98963 65.6829 4.64453C65.6249 4.72865 65.4366 4.79474 65.3485 4.84281C65.0741 4.92292 64.7396 4.94695 64.4673 5.01505C63.5119 5.22133 62.855 6.02444 62.2302 6.73142C62.1781 6.81954 62.0339 6.77748 62.0379 6.67534H62.0359Z" fill="black"/>
<path d="M20.2822 7.2978C22.7977 3.89109 27.2959 2.56125 31.3876 2.58528C35.6535 2.62534 39.1443 5.38916 42.8715 7.05546C44.0892 7.63026 45.3209 8.17501 46.5826 8.64166C47.8424 9.08828 49.1361 9.58096 50.486 9.609C49.1281 9.8293 47.7362 9.48282 46.4164 9.1744C43.7647 8.48544 41.2112 7.42397 38.7578 6.23032C37.5301 5.64151 36.3344 5.02265 35.1147 4.54599C30.6526 2.69143 23.751 3.88908 20.2822 7.2978Z" fill="black"/>
<path d="M57.053 7.93253C57.1131 7.92852 57.1772 7.90849 57.2372 7.93253C57.2453 7.93653 57.2493 7.95055 57.2453 7.95856C57.043 8.11678 56.7686 8.16685 56.5323 8.26499C55.619 8.57341 54.6917 8.83377 53.7624 9.08813C50.0433 10.1696 46.224 10.8886 42.3406 10.9427C39.7551 11.0028 37.1795 10.8846 34.6039 10.5742C32.0224 10.2237 29.5469 9.62887 27.0335 9.42059C22.8276 9.10415 17.9489 9.44462 14.5482 12.1804C13.1643 13.346 12.0688 14.9983 11.9766 16.8429C11.8885 18.3389 12.4553 19.9872 13.8312 20.7202C15.6217 21.9539 18.1932 22.3705 20.0138 20.9686C18.2593 22.5387 15.5215 22.2543 13.6229 21.0607C11.3938 19.9512 10.9412 16.9991 11.7383 14.8381C12.4473 12.9475 13.9293 11.4194 15.6577 10.42C19.1225 8.47728 23.2322 8.15483 27.1176 8.44123C29.6851 8.63149 32.2086 9.24835 34.7321 9.60684C35.9778 9.76506 37.2556 9.87521 38.5193 9.95332C42.3166 10.1917 46.1519 10.0755 49.8991 9.39054L53.6723 8.69558C54.141 8.59745 57.9823 7.93253 57.051 7.93253H57.053Z" fill="black"/>
<path d="M100.763 7.2978C97.2966 3.89109 90.397 2.68942 85.9308 4.54599C84.7111 5.02265 83.5155 5.64351 82.2878 6.23032C79.8324 7.42397 77.2809 8.48344 74.6292 9.1744C73.3094 9.48482 71.9174 9.8293 70.5596 9.609C71.9094 9.58096 73.2052 9.08828 74.463 8.64166C75.7247 8.17501 76.9584 7.62826 78.1741 7.05546C81.8993 5.38916 85.3921 2.62534 89.658 2.58528C93.7497 2.56125 98.2479 3.89109 100.763 7.2978Z" fill="black"/>
<path d="M63.9945 7.93276C63.9364 7.93276 63.8743 7.92876 63.8223 7.95079C63.8183 7.94478 63.8363 7.96481 63.8543 7.97081C64.7536 8.2512 66.4279 8.49955 67.3732 8.69582L71.1464 9.39078C74.8936 10.0757 78.7289 10.1899 82.5261 9.95356C83.7899 9.87345 85.0677 9.7653 86.3134 9.60708C88.8369 9.24858 91.3604 8.63173 93.9279 8.44147C97.8133 8.15307 101.923 8.47752 105.388 10.4202C107.116 11.4216 108.598 12.9477 109.307 14.8383C110.104 16.9993 109.652 19.9534 107.423 21.0609C105.522 22.2546 102.786 22.541 101.032 20.9688C102.852 22.3707 105.424 21.9542 107.214 20.7205C108.588 19.9854 109.159 18.3372 109.069 16.8431C108.977 14.9985 107.883 13.3463 106.497 12.1806C103.099 9.44686 98.2139 9.10438 94.012 9.42082C91.4986 9.62911 89.0231 10.2239 86.4416 10.5744C83.866 10.8868 81.2904 11.003 78.7049 10.9429C74.8235 10.8868 71.0022 10.1699 67.2831 9.08836C66.7784 8.96219 62.9531 7.87668 63.9945 7.93276Z" fill="black"/>
<path d="M60.5858 115.221C61.1765 115.221 61.6553 114.743 61.6553 114.152C61.6553 113.561 61.1765 113.083 60.5858 113.083C59.9952 113.083 59.5164 113.561 59.5164 114.152C59.5164 114.743 59.9952 115.221 60.5858 115.221Z" fill="black"/>
<path d="M60.0852 111.991C59.6986 110.968 59.4523 109.894 59.226 108.831C59.1138 108.312 58.9256 107.787 59.0257 107.251C59.1138 106.61 59.5124 106.043 60.0852 105.67C60.7881 105.216 61.5212 105.911 61.8636 106.46C62.3423 107.209 62.158 108.038 61.9457 108.829L61.7755 109.618C61.5853 110.423 61.385 111.202 61.0886 111.987C60.9263 112.444 60.2474 112.438 60.0872 111.987L60.0852 111.991Z" fill="black"/>
<path d="M58.9075 112.258C58.4549 111.717 57.9642 111.208 57.3914 110.818C56.9628 110.567 56.5082 110.503 56.0235 110.423C55.9474 110.405 55.8513 110.399 55.7892 110.369L55.5789 110.267C55.3926 110.177 55.3145 109.953 55.4046 109.766C55.9093 109.137 56.8807 109.123 57.5716 109.442C58.2165 109.742 58.6231 110.355 58.8494 110.994C58.9235 111.128 59.3381 112.592 58.9075 112.258Z" fill="black"/>
<path d="M62.124 112.202C62.1741 110.902 62.9271 109.36 64.3731 109.246C64.8338 109.153 66.2137 109.516 65.7711 110.171C65.713 110.255 65.5247 110.321 65.4366 110.369C65.1622 110.449 64.8278 110.473 64.5554 110.541C63.6001 110.748 62.9432 111.551 62.3183 112.258C62.2662 112.346 62.122 112.304 62.126 112.202H62.124Z" fill="black"/>
<path d="M20.282 114.082C23.7488 117.489 30.6483 118.691 35.1145 116.834C36.3342 116.357 37.5298 115.736 38.7575 115.15C41.2129 113.956 43.7645 112.896 46.4161 112.206C47.736 111.895 49.1279 111.551 50.4858 111.771C49.1359 111.799 47.8401 112.292 46.5824 112.738C45.3206 113.205 44.0869 113.752 42.8712 114.324C39.1461 115.989 35.6532 118.755 31.3873 118.795C27.2957 118.819 22.7975 117.489 20.282 114.082Z" fill="black"/>
<path d="M57.0529 113.449C57.111 113.449 57.1731 113.453 57.2252 113.431C57.2292 113.437 57.2112 113.417 57.1931 113.411C56.2939 113.131 54.6196 112.882 53.6743 112.686L49.901 111.991C46.1539 111.306 42.3186 111.192 38.5213 111.428C37.2576 111.508 35.9798 111.617 34.7341 111.775C32.2106 112.133 29.6871 112.75 27.1195 112.94C23.2342 113.229 19.1245 112.904 15.6597 110.962C13.9313 109.96 12.4492 108.434 11.7403 106.544C10.9432 104.383 11.3958 101.429 13.6249 100.321C15.5255 99.1274 18.2613 98.841 20.0157 100.413C18.1952 99.0112 15.6236 99.4278 13.8332 100.661C12.4593 101.396 11.8885 103.045 11.9786 104.539C12.0707 106.383 13.1642 108.036 14.5501 109.201C17.9488 111.935 22.8336 112.278 27.0354 111.961C29.5489 111.753 32.0243 111.158 34.6059 110.808C37.1814 110.495 39.757 110.379 42.3426 110.439C46.224 110.495 50.0452 111.212 53.7644 112.294C54.2691 112.42 58.0944 113.505 57.0529 113.449Z" fill="black"/>
<path d="M100.764 114.082C98.2481 117.489 93.7499 118.819 89.6582 118.795C85.3923 118.755 81.9015 115.991 78.1743 114.325C76.9567 113.75 75.725 113.205 74.4632 112.739C73.2035 112.292 71.9097 111.799 70.5598 111.771C71.9177 111.551 73.3096 111.897 74.6294 112.206C77.2811 112.895 79.8346 113.956 82.288 115.15C83.5157 115.739 84.7114 116.358 85.9311 116.834C90.3933 118.689 97.2948 117.491 100.764 114.082Z" fill="black"/>
<path d="M63.9946 113.449C63.9345 113.453 63.8704 113.473 63.8104 113.449C63.8023 113.445 63.7983 113.431 63.8024 113.423C64.0046 113.265 64.279 113.215 64.5153 113.117C65.4286 112.808 66.3559 112.548 67.2852 112.294C71.0043 111.212 74.8236 110.493 78.707 110.439C81.2925 110.379 83.8681 110.497 86.4437 110.808C89.0252 111.158 91.5007 111.753 94.0141 111.961C98.22 112.278 103.099 111.937 106.499 109.201C107.883 108.036 108.979 106.384 109.071 104.539C109.159 103.043 108.592 101.395 107.216 100.662C105.426 99.428 102.854 99.0114 101.034 100.413C102.788 98.8432 105.526 99.1276 107.425 100.321C109.654 101.431 110.106 104.383 109.309 106.544C108.6 108.434 107.118 109.963 105.39 110.962C101.925 112.905 97.8154 113.227 93.93 112.941C91.3625 112.75 88.839 112.134 86.3155 111.775C85.0698 111.617 83.792 111.507 82.5283 111.429C78.731 111.19 74.8957 111.306 71.1485 111.991L67.3753 112.686C66.9066 112.784 63.0653 113.449 63.9966 113.449H63.9946Z" fill="black"/>
</g>
<defs>
<clipPath id="clip0_110_132">
<rect width="120" height="118.796" fill="white"/>
</clipPath>
</defs>
</svg>
