<svg width="250" height="58" viewBox="0 0 250 58" fill="none" xmlns="http://www.w3.org/2000/svg">
<rect width="250" height="58" rx="29" fill="#343434"/>
<path d="M76.5355 24.5V22.5312L82.723 14.2727H76.5611V11.4091H87.2486V13.3778L81.0611 21.6364H87.223V24.5H76.5355ZM92.383 24.5H88.5478L92.8688 11.4091H97.7267L102.048 24.5H98.2125L95.3489 15.0142H95.2466L92.383 24.5ZM91.6671 19.3352H98.8773V21.9943H91.6671V19.3352ZM108.346 24.5H103.309V11.4091H108.294C109.641 11.4091 110.804 11.6712 111.784 12.1953C112.769 12.7152 113.527 13.4652 114.06 14.4453C114.597 15.4212 114.865 16.5909 114.865 17.9545C114.865 19.3182 114.599 20.4901 114.066 21.4702C113.534 22.446 112.779 23.196 111.804 23.7202C110.828 24.2401 109.675 24.5 108.346 24.5ZM106.863 21.483H108.218C108.865 21.483 109.417 21.3786 109.873 21.1697C110.333 20.9609 110.683 20.6009 110.922 20.0895C111.164 19.5781 111.286 18.8665 111.286 17.9545C111.286 17.0426 111.162 16.331 110.915 15.8196C110.672 15.3082 110.314 14.9482 109.841 14.7393C109.373 14.5305 108.797 14.4261 108.115 14.4261H106.863V21.483ZM116.561 24.5V22.5312L122.748 14.2727H116.586V11.4091H127.274V13.3778L121.086 21.6364H127.248V24.5H116.561ZM132.332 24.5L128.471 11.4091H132.434L134.224 19.4631H134.326L136.448 11.4091H139.567L141.69 19.4886H141.792L143.582 11.4091H147.545L143.684 24.5H140.283L138.059 17.1875H137.957L135.732 24.5H132.332ZM160.551 17.9545C160.551 19.4119 160.268 20.6413 159.701 21.6428C159.134 22.6399 158.369 23.3963 157.406 23.9119C156.443 24.4233 155.369 24.679 154.184 24.679C152.991 24.679 151.913 24.4212 150.95 23.9055C149.991 23.3857 149.229 22.6271 148.662 21.63C148.099 20.6286 147.818 19.4034 147.818 17.9545C147.818 16.4972 148.099 15.2699 148.662 14.2727C149.229 13.2713 149.991 12.5149 150.95 12.0036C151.913 11.4879 152.991 11.2301 154.184 11.2301C155.369 11.2301 156.443 11.4879 157.406 12.0036C158.369 12.5149 159.134 13.2713 159.701 14.2727C160.268 15.2699 160.551 16.4972 160.551 17.9545ZM156.895 17.9545C156.895 17.1705 156.79 16.5099 156.581 15.973C156.377 15.4318 156.072 15.0227 155.667 14.7457C155.267 14.4645 154.773 14.3239 154.184 14.3239C153.596 14.3239 153.1 14.4645 152.695 14.7457C152.295 15.0227 151.99 15.4318 151.781 15.973C151.577 16.5099 151.474 17.1705 151.474 17.9545C151.474 18.7386 151.577 19.4013 151.781 19.9425C151.99 20.4794 152.295 20.8885 152.695 21.1697C153.1 21.4467 153.596 21.5852 154.184 21.5852C154.773 21.5852 155.267 21.4467 155.667 21.1697C156.072 20.8885 156.377 20.4794 156.581 19.9425C156.79 19.4013 156.895 18.7386 156.895 17.9545ZM173.522 11.4091V24.5H170.556L165.826 17.6222H165.749V24.5H162.195V11.4091H165.212L169.866 18.2614H169.968V11.4091H173.522ZM166.695 10.1818L167.923 7.31818H170.94L169.022 10.1818H166.695ZM58.4884 44.1989V35.7614H59.9202V44.1989H58.4884ZM54.9855 40.696V39.2642H63.423V40.696H54.9855ZM66.186 43.8153V42.5114L71.9388 33.4091H72.8849V35.429H72.2457L67.8991 42.3068V42.4091H75.6462V43.8153H66.186ZM72.3479 46.5V43.419V42.8118V33.4091H73.8564V46.5H72.3479ZM82.2348 46.679C81.357 46.679 80.5814 46.5234 79.9081 46.2124C79.2391 45.897 78.7171 45.4645 78.3421 44.9148C77.9671 44.3608 77.7817 43.7301 77.786 43.0227C77.7817 42.4687 77.8904 41.9574 78.1119 41.4886C78.3335 41.0156 78.6361 40.6214 79.0196 40.3061C79.4074 39.9865 79.8399 39.7841 80.3172 39.6989V39.6222C79.6908 39.4602 79.1922 39.1087 78.8215 38.5675C78.4507 38.022 78.2675 37.402 78.2718 36.7074C78.2675 36.0426 78.4358 35.4482 78.7767 34.924C79.1176 34.3999 79.5864 33.9865 80.183 33.6839C80.7838 33.3814 81.4678 33.2301 82.2348 33.2301C82.9933 33.2301 83.6709 33.3814 84.2675 33.6839C84.8641 33.9865 85.3328 34.3999 85.6737 34.924C86.0189 35.4482 86.1936 36.0426 86.1979 36.7074C86.1936 37.402 86.004 38.022 85.629 38.5675C85.2583 39.1087 84.7661 39.4602 84.1524 39.6222V39.6989C84.6254 39.7841 85.0516 39.9865 85.4308 40.3061C85.8101 40.6214 86.1127 41.0156 86.3385 41.4886C86.5644 41.9574 86.6794 42.4687 86.6837 43.0227C86.6794 43.7301 86.4877 44.3608 86.1084 44.9148C85.7334 45.4645 85.2114 45.897 84.5423 46.2124C83.8776 46.5234 83.1084 46.679 82.2348 46.679ZM82.2348 45.2727C82.8271 45.2727 83.3385 45.1768 83.7689 44.9851C84.1993 44.7933 84.5317 44.5227 84.7661 44.1733C85.0004 43.8239 85.1198 43.4148 85.124 42.946C85.1198 42.4517 84.9919 42.0149 84.7405 41.6357C84.4891 41.2564 84.146 40.9581 83.7114 40.7408C83.281 40.5234 82.7888 40.4148 82.2348 40.4148C81.6766 40.4148 81.178 40.5234 80.7391 40.7408C80.3044 40.9581 79.9614 41.2564 79.71 41.6357C79.4628 42.0149 79.3414 42.4517 79.3456 42.946C79.3414 43.4148 79.4543 43.8239 79.6844 44.1733C79.9188 44.5227 80.2533 44.7933 80.6879 44.9851C81.1226 45.1768 81.6382 45.2727 82.2348 45.2727ZM82.2348 39.0597C82.7036 39.0597 83.1191 38.9659 83.4813 38.7784C83.8477 38.5909 84.1354 38.3288 84.3442 37.9922C84.553 37.6555 84.6595 37.2614 84.6638 36.8097C84.6595 36.3665 84.5551 35.9808 84.3506 35.6527C84.146 35.3203 83.8627 35.0646 83.5004 34.8857C83.1382 34.7024 82.7164 34.6108 82.2348 34.6108C81.7448 34.6108 81.3165 34.7024 80.95 34.8857C80.5835 35.0646 80.3002 35.3203 80.0999 35.6527C79.8996 35.9808 79.8016 36.3665 79.8058 36.8097C79.8016 37.2614 79.9017 37.6555 80.1063 37.9922C80.3151 38.3288 80.6027 38.5909 80.9692 38.7784C81.3357 38.9659 81.7575 39.0597 82.2348 39.0597ZM98.2868 46.679C97.5368 46.679 96.8614 46.5298 96.2606 46.2315C95.6597 45.9332 95.1782 45.5241 94.816 45.0043C94.4537 44.4844 94.2556 43.892 94.2215 43.2273H95.7556C95.8153 43.8196 96.0837 44.3097 96.561 44.6974C97.0425 45.081 97.6178 45.2727 98.2868 45.2727C98.8238 45.2727 99.301 45.147 99.7187 44.8956C100.141 44.6442 100.471 44.299 100.709 43.8601C100.952 43.4169 101.074 42.9162 101.074 42.358C101.074 41.7869 100.948 41.2777 100.697 40.8303C100.449 40.3786 100.109 40.0227 99.6739 39.7628C99.2393 39.5028 98.7428 39.3707 98.1846 39.3665C97.784 39.3622 97.3728 39.424 96.9509 39.5518C96.529 39.6754 96.1817 39.8352 95.909 40.0312L94.426 39.8523L95.2187 33.4091H102.02V34.8153H96.5482L96.088 38.6761H96.1647C96.4331 38.4631 96.7698 38.2862 97.1746 38.1456C97.5795 38.005 98.0013 37.9347 98.4403 37.9347C99.2414 37.9347 99.9552 38.1264 100.582 38.5099C101.212 38.8892 101.707 39.4091 102.065 40.0696C102.427 40.7301 102.608 41.4844 102.608 42.3324C102.608 43.1676 102.42 43.9134 102.045 44.5696C101.675 45.2216 101.163 45.7372 100.511 46.1165C99.8593 46.4915 99.1178 46.679 98.2868 46.679ZM105.556 46.5L111.411 34.9176V34.8153H104.661V33.4091H113.048V34.892L107.218 46.5H105.556ZM115.43 46.5V45.3494L119.751 40.6193C120.258 40.0653 120.676 39.5838 121.004 39.1747C121.332 38.7614 121.575 38.3736 121.733 38.0114C121.895 37.6449 121.976 37.2614 121.976 36.8608C121.976 36.4006 121.865 36.0021 121.643 35.6655C121.426 35.3288 121.128 35.0689 120.748 34.8857C120.369 34.7024 119.943 34.6108 119.47 34.6108C118.967 34.6108 118.528 34.7152 118.153 34.924C117.783 35.1286 117.495 35.4162 117.29 35.7869C117.09 36.1577 116.99 36.5923 116.99 37.0909H115.481C115.481 36.3239 115.658 35.6506 116.012 35.071C116.366 34.4915 116.847 34.0398 117.457 33.7159C118.07 33.392 118.758 33.2301 119.521 33.2301C120.288 33.2301 120.968 33.392 121.56 33.7159C122.153 34.0398 122.617 34.4766 122.954 35.0263C123.29 35.576 123.459 36.1875 123.459 36.8608C123.459 37.3423 123.371 37.8132 123.197 38.2734C123.026 38.7294 122.728 39.2386 122.302 39.8011C121.88 40.3594 121.294 41.0412 120.544 41.8466L117.604 44.9915V45.0938H123.689V46.5H115.43ZM135.994 33.4091V46.5H134.408V35.071H134.332L131.136 37.1932V35.5824L134.408 33.4091H135.994ZM140.168 46.5L146.023 34.9176V34.8153H139.273V33.4091H147.659V34.892L141.829 46.5H140.168ZM150.042 46.5V45.3494L154.363 40.6193C154.87 40.0653 155.287 39.5838 155.616 39.1747C155.944 38.7614 156.187 38.3736 156.344 38.0114C156.506 37.6449 156.587 37.2614 156.587 36.8608C156.587 36.4006 156.476 36.0021 156.255 35.6655C156.037 35.3288 155.739 35.0689 155.36 34.8857C154.981 34.7024 154.554 34.6108 154.081 34.6108C153.579 34.6108 153.14 34.7152 152.765 34.924C152.394 35.1286 152.106 35.4162 151.902 35.7869C151.701 36.1577 151.601 36.5923 151.601 37.0909H150.093C150.093 36.3239 150.27 35.6506 150.623 35.071C150.977 34.4915 151.459 34.0398 152.068 33.7159C152.682 33.392 153.37 33.2301 154.133 33.2301C154.9 33.2301 155.579 33.392 156.172 33.7159C156.764 34.0398 157.228 34.4766 157.565 35.0263C157.902 35.576 158.07 36.1875 158.07 36.8608C158.07 37.3423 157.983 37.8132 157.808 38.2734C157.638 38.7294 157.339 39.2386 156.913 39.8011C156.491 40.3594 155.905 41.0412 155.155 41.8466L152.215 44.9915V45.0938H158.3V46.5H150.042ZM166.003 46.5V45.3494L170.324 40.6193C170.831 40.0653 171.248 39.5838 171.576 39.1747C171.905 38.7614 172.147 38.3736 172.305 38.0114C172.467 37.6449 172.548 37.2614 172.548 36.8608C172.548 36.4006 172.437 36.0021 172.216 35.6655C171.998 35.3288 171.7 35.0689 171.321 34.8857C170.941 34.7024 170.515 34.6108 170.042 34.6108C169.54 34.6108 169.101 34.7152 168.726 34.924C168.355 35.1286 168.067 35.4162 167.863 35.7869C167.662 36.1577 167.562 36.5923 167.562 37.0909H166.054C166.054 36.3239 166.231 35.6506 166.584 35.071C166.938 34.4915 167.419 34.0398 168.029 33.7159C168.642 33.392 169.331 33.2301 170.093 33.2301C170.861 33.2301 171.54 33.392 172.133 33.7159C172.725 34.0398 173.189 34.4766 173.526 35.0263C173.863 35.576 174.031 36.1875 174.031 36.8608C174.031 37.3423 173.944 37.8132 173.769 38.2734C173.598 38.7294 173.3 39.2386 172.874 39.8011C172.452 40.3594 171.866 41.0412 171.116 41.8466L168.176 44.9915V45.0938H174.261V46.5H166.003ZM177.31 46.5L183.165 34.9176V34.8153H176.415V33.4091H184.802V34.892L178.972 46.5H177.31ZM187.184 46.5V45.3494L191.505 40.6193C192.012 40.0653 192.43 39.5838 192.758 39.1747C193.086 38.7614 193.329 38.3736 193.487 38.0114C193.649 37.6449 193.73 37.2614 193.73 36.8608C193.73 36.4006 193.619 36.0021 193.397 35.6655C193.18 35.3288 192.882 35.0689 192.502 34.8857C192.123 34.7024 191.697 34.6108 191.224 34.6108C190.721 34.6108 190.282 34.7152 189.907 34.924C189.536 35.1286 189.249 35.4162 189.044 35.7869C188.844 36.1577 188.744 36.5923 188.744 37.0909H187.235C187.235 36.3239 187.412 35.6506 187.766 35.071C188.12 34.4915 188.601 34.0398 189.21 33.7159C189.824 33.392 190.512 33.2301 191.275 33.2301C192.042 33.2301 192.722 33.392 193.314 33.7159C193.907 34.0398 194.371 34.4766 194.708 35.0263C195.044 35.576 195.213 36.1875 195.213 36.8608C195.213 37.3423 195.125 37.8132 194.951 38.2734C194.78 38.7294 194.482 39.2386 194.056 39.8011C193.634 40.3594 193.048 41.0412 192.298 41.8466L189.358 44.9915V45.0938H195.443V46.5H187.184Z" fill="white"/>
</svg>
