<svg width="120" height="119" viewBox="0 0 120 119" fill="none" xmlns="http://www.w3.org/2000/svg">
<g clip-path="url(#clip0_110_654)">
<path d="M8.62794 60.1733C9.0365 63.578 9.47511 66.9787 9.84162 70.3894C10.0359 72.1919 9.8997 73.9924 9.33491 75.7288C9.07055 76.5399 9.26081 76.8583 10.126 77.1487C12.4072 77.9158 14.6162 78.8951 16.8814 79.7143C17.8928 80.0808 18.9642 80.3031 20.0217 80.5214C22.4571 81.0261 24.7883 82.0896 27.3378 81.9734C29.1143 81.8933 30.7505 81.4887 31.5256 79.5901C31.6197 79.3598 31.8481 79.1495 32.0664 79.0133C32.2166 78.9172 32.507 78.8811 32.6432 78.9652C32.7914 79.0574 32.9476 79.3578 32.9015 79.502C32.6712 80.213 32.4188 80.922 32.0924 81.5949C31.1331 83.5756 29.2765 84.0583 27.3458 84.1524C25.998 84.2185 24.6621 84.1945 23.3183 83.4715C21.8723 82.6944 20.1779 82.3319 18.5537 81.9474C16.639 81.4927 14.9727 80.5394 13.2203 79.7283C11.7963 79.0694 10.2382 78.6728 8.70404 78.3063C8.32552 78.2162 7.71267 78.5987 7.37821 78.9352C6.29671 80.0227 5.07302 80.7938 3.57695 81.1743C2.07287 81.5568 0.486675 80.7397 0.0801124 79.3017C-0.2904 77.9899 0.622863 76.2655 2.02881 75.9671C3.01617 75.7588 4.07965 75.7788 5.09705 75.8549C6.56909 75.9651 6.83145 75.7909 6.68925 74.3088C6.35079 70.7899 5.95424 67.2771 5.64181 63.7562C5.42551 61.3288 5.43152 58.9496 6.42489 56.6003C8.48374 51.7356 14.0675 51.9319 16.4568 54.5595C17.7245 55.9514 17.4822 58.6632 16.0182 59.5203C14.8525 60.2033 13.1161 59.4142 12.8598 58.0864C12.6535 57.0169 13.749 56.2498 14.9587 56.5943C15.211 56.6664 15.4954 56.6323 15.7658 56.6464C15.7117 56.3339 15.7458 55.9674 15.5916 55.7171C14.5161 53.9727 11.4498 53.4139 10.0219 54.8198C8.85425 55.9714 8.5999 57.5636 8.61792 59.1719C8.62193 59.5043 8.65197 59.8388 8.66799 60.1712L8.62393 60.1773L8.62794 60.1733ZM3.94346 77.0666C3.94145 77.0466 3.93945 77.0266 3.93745 77.0065C3.44477 77.0706 2.92405 77.0566 2.46741 77.2168C1.69034 77.4892 1.31382 78.084 1.45201 78.9412C1.58219 79.7603 2.27915 79.9726 2.86797 79.9166C3.55892 79.8525 4.31397 79.5901 4.86673 79.1795C5.31335 78.8471 5.50361 78.1661 5.80804 77.6414C5.28732 77.4492 4.7686 77.2549 4.24588 77.0706C4.15575 77.0386 4.0476 77.0666 3.94746 77.0666H3.94346Z" fill="white"/>
<path d="M43.7685 75.3564C45.7233 75.3784 47.5378 74.9158 48.7514 73.3216C50.0673 71.5932 49.9451 69.0557 48.3088 67.3173C46.7967 65.711 44.9702 64.3992 43.2659 62.9773C41.8879 61.8277 40.3478 60.8363 39.1241 59.5425C37.3256 57.6419 36.2562 53.7865 38.7436 51.1769C40.3318 49.5106 42.4928 48.9679 44.798 49.2583C45.3848 49.3324 45.9436 49.6148 46.5284 49.7009C46.9269 49.759 47.3835 49.7309 47.7561 49.5887C48.4971 49.3064 48.8876 49.4125 48.9778 50.2777C49.148 51.932 49.4023 53.5783 49.5305 55.2366C49.5546 55.555 49.2301 56.1198 48.9617 56.1939C48.3769 56.3561 48.2007 55.8834 48.1706 55.3407C48.1346 54.6778 48.0445 54.0149 47.9664 53.3539C47.7921 51.8739 47.1833 51.191 45.7072 50.8665C44.3153 50.5601 42.9314 50.4119 41.6797 51.3332C40.4399 52.2444 40.0234 53.7745 40.5341 55.2526C41.173 57.1091 42.7211 58.1125 44.1351 59.2701C46.3962 61.1227 48.6793 62.9572 50.8203 64.942C52.9392 66.9067 53.6262 70.9042 51.8217 73.2715C50.626 74.8417 48.9057 75.6648 47.0351 76.1495C44.4195 76.8264 41.7898 76.9906 39.3785 75.5346C36.4945 73.7942 35.0305 69.6425 37.3577 66.7345C38.2709 65.5929 39.7951 65.0902 41.209 65.5348C42.649 65.9894 43.4721 67.121 43.5022 68.6872C43.5202 69.6745 42.5789 70.8522 41.6596 70.9923C40.3959 71.1846 39.3584 70.5698 38.9899 69.4062C38.7035 68.5029 39.741 67.6197 40.8065 67.7999C41.1209 67.854 41.4734 67.6918 41.8078 67.6277C41.5475 67.3573 41.3372 66.9708 41.0207 66.8386C39.7149 66.2918 37.9785 67.4174 37.6381 68.9736C37.0292 71.7614 39.1421 74.6774 42.1763 75.2102C42.6991 75.3023 43.2358 75.3103 43.7685 75.3564Z" fill="white"/>
<path d="M30.356 25.6956C31.7039 25.6956 32.7373 25.6355 33.7607 25.7076C36.2361 25.8838 37.7182 27.3999 38.6715 29.5409C38.9259 30.1137 39.1001 30.7345 39.2303 31.3494C39.7951 34.0331 37.9084 36.2261 35.4891 37.4018C34.8963 37.6902 34.2013 37.7763 33.6225 38.0887C33.3361 38.2429 33.2079 38.6936 33.0117 39.014C32.9997 39.034 33.0257 39.0781 33.0317 39.1101C33.4803 41.2731 34.0771 41.4494 35.8536 40.0194C36.142 39.7871 36.6407 39.8151 37.0412 39.721C36.873 40.0975 36.7949 40.5681 36.5185 40.8305C36.0679 41.2591 35.5111 41.5956 34.9584 41.89C34.3435 42.2164 34.1573 42.611 34.4296 43.2699C34.684 43.8827 34.8863 44.5196 35.0705 45.1565C35.3008 45.9556 35.8015 46.1258 36.5265 45.8515C36.7428 45.7693 36.9571 45.5971 37.1674 45.6051C37.4158 45.6151 37.6601 45.7733 37.9064 45.8695C37.7963 46.1118 37.7442 46.4943 37.564 46.5725C36.6487 46.965 35.7034 47.2955 34.7601 47.6179C33.6265 48.0044 32.491 48.385 31.3374 48.7034C31.1151 48.7655 30.8086 48.5211 30.5403 48.417C30.7005 48.1627 30.8347 47.8843 31.0349 47.664C31.1271 47.5618 31.3474 47.5798 31.5076 47.5398C32.5711 47.2774 32.8034 46.8348 32.4229 45.7994C32.4008 45.7373 32.3608 45.6792 32.3448 45.6151C31.9001 43.8367 31.2392 42.617 28.9901 42.3366C26.771 42.0602 24.9665 40.5321 23.823 38.4432C21.4417 34.0952 23.1941 28.7858 27.6763 26.713C28.1069 26.5147 28.4734 26.0621 28.7358 25.6435C29.1744 24.9405 29.4548 24.1414 29.9014 23.4445C30.0736 23.1761 30.5142 23.082 30.8327 22.9077C30.8867 23.2742 31.0429 23.6608 30.9729 24.0012C30.8607 24.548 30.5983 25.0667 30.362 25.6956H30.356ZM27.6983 27.9487C25.7116 29.0682 24.5059 30.5423 24.0893 32.517C23.2321 36.5947 25.3691 40.3879 29.647 41.5135C29.9394 41.5896 30.362 41.5956 30.5663 41.4333C30.7085 41.3212 30.6264 40.8565 30.5623 40.5681C30.4621 40.1195 30.2959 39.6849 30.1477 39.2483C29.0322 35.9818 27.7083 32.7633 27.9146 29.1984C27.9347 28.8339 27.7925 28.4594 27.7003 27.9487H27.6983ZM31.4115 27.2077C30.1277 27.1876 29.9354 27.418 29.9675 28.7218C30.0356 31.4475 31.1892 33.8749 32.0724 36.3723C32.1685 36.6447 32.7814 36.9531 33.0878 36.8931C34.7681 36.5706 36.7348 35.2588 36.4004 32.9837C36.2181 31.7339 35.7715 30.4702 35.1907 29.3426C34.4376 27.8806 33.0637 27.2177 31.4095 27.2077H31.4115Z" fill="white"/>
<path d="M46.995 96.3473C46.995 96.5797 46.981 96.814 46.997 97.0463C47.0431 97.7032 46.9169 98.262 46.1739 98.4402C45.4589 98.6125 44.5516 98.1218 44.3193 97.4368C44.2352 97.1905 44.1691 96.9141 44.1891 96.6578C44.4094 93.8779 45.3968 91.5166 47.7881 89.8624C51.1788 87.5151 54.6176 85.236 58.4709 83.7319C60.2493 83.0369 62.168 82.6864 64.0406 82.2578C64.6815 82.1116 65.1041 81.9835 65.2903 81.2404C65.6989 79.6162 66.9827 78.9573 68.4146 79.8425C70.4394 81.0942 72.3821 82.5122 74.2107 84.0383C76.3997 85.8648 78.5326 87.7815 80.4893 89.8503C81.5788 91.0019 82.0375 92.6142 81.8192 94.2765C81.669 95.418 80.986 96.0589 79.8445 95.9528C78.4325 95.8246 77.0466 95.4561 75.6386 95.2638C72.284 94.8032 68.9273 94.3265 65.5607 93.966C63.3777 93.7337 61.1766 93.6556 58.9796 93.5875C57.9862 93.5575 56.9848 93.6957 55.9935 93.8038C55.675 93.8379 55.3105 93.944 55.0742 94.1443C54.4193 94.7011 53.8485 94.9174 53.2176 94.1082C53.0874 93.942 52.7369 93.8759 52.4906 93.8839C51.1928 93.92 49.891 93.958 48.5972 94.0642C47.0391 94.1903 46.8388 94.5048 46.999 96.3473H46.995ZM62.6607 83.6197C62.9771 83.7839 63.2054 83.8961 63.4277 84.0203C64.345 84.537 64.7876 86.1873 64.2268 86.9904C63.1333 88.5586 59.5043 88.9511 58.1585 87.5852C57.9442 87.3669 57.8921 86.694 58.0663 86.4396C58.539 85.7587 59.1759 85.1919 59.7466 84.579L59.5964 84.2786C59.0076 84.4689 58.3747 84.577 57.836 84.8634C55.7571 85.967 53.6522 87.0385 51.6715 88.3022C50.6761 88.9371 50.2034 90.3831 48.6753 90.2168C48.6513 90.2148 48.6233 90.2549 48.5952 90.2729C46.1759 91.6709 45.3688 93.962 45.1605 96.5576C45.1424 96.7779 45.509 97.0263 45.6972 97.2626C45.8975 97.0823 46.238 96.9261 46.272 96.7198C46.3641 96.1671 46.3341 95.5923 46.3381 95.0255C46.3421 94.3105 46.6005 93.6856 47.3615 93.6656C49.7088 93.6055 52.074 92.2877 54.4894 93.8278C54.8539 92.1776 55.9874 92.0093 57.3934 92.1115C58.9195 92.2216 60.4596 92.1255 61.9938 92.1435C62.7889 92.1515 63.7141 91.8771 64.0686 93.0047C64.1047 93.1229 64.333 93.243 64.4772 93.253C66.0073 93.3592 67.5394 93.4433 69.0695 93.5354C69.0756 93.4373 69.0816 93.3372 69.0876 93.239C67.6336 93.1149 66.1775 92.9907 64.7235 92.8685C64.7235 92.7604 64.7255 92.6502 64.7275 92.5421C64.8898 92.474 65.058 92.3318 65.2142 92.3458C68.2905 92.6202 71.3667 92.9086 74.441 93.203C75.6767 93.3211 75.7548 93.235 75.3502 92.0774C74.8155 90.5433 75.2541 89.3777 76.6961 88.5766C77.4131 88.178 77.367 87.8015 76.7862 87.2848C75.2721 85.9409 73.8662 84.4629 72.272 83.2272C70.9882 82.2298 69.5122 81.4687 68.0782 80.6797C67.5474 80.3873 66.8965 80.3512 66.496 81.0181C66.0774 81.7151 65.805 82.4261 66.5441 83.091C67.1849 83.6678 67.8118 84.2646 68.4988 84.7793C70.3133 86.1412 72.0817 87.5431 73.3374 89.4718C73.5537 89.8023 73.6679 90.1988 73.8281 90.5653C73.716 90.6394 73.6018 90.7135 73.4897 90.7876C73.1973 90.4412 72.9129 90.0907 72.6144 89.7502C71.8594 88.887 71.1684 87.9477 70.3213 87.1867C68.8512 85.8648 67.267 84.6712 65.759 83.3894C65.088 82.8186 63.4378 82.8326 62.6567 83.6157L62.6607 83.6197ZM77.4411 93.918C76.9264 93.918 76.4658 93.926 76.0071 93.916C75.5725 93.906 75.1399 93.8739 74.7053 93.8499C74.6933 93.9761 74.6833 94.1022 74.6713 94.2284C75.2361 94.3626 75.7969 94.5348 76.3696 94.6229C77.3049 94.7651 78.2462 94.9033 79.1895 94.9394C79.536 94.9534 80.0527 94.7712 80.217 94.5068C81.0441 93.187 80.4833 90.3991 79.2677 89.4037C78.6828 88.9251 77.0946 88.9831 76.4357 89.5079C75.7948 90.0166 75.5385 91.08 75.9851 91.8611C76.3817 92.5561 76.9104 93.1789 77.4431 93.916L77.4411 93.918Z" fill="white"/>
<path d="M108.831 67.7098C109.043 67.5095 109.131 67.4554 109.181 67.3753C109.483 66.8826 109.836 66.2578 110.449 66.7484C110.641 66.9026 110.445 67.8199 110.174 68.2145C109.616 69.0356 108.786 69.5964 107.721 69.364C106.305 69.0556 105.726 68.3787 105.55 67.0028C105.344 65.3946 105.179 63.7803 104.939 62.1761C104.791 61.1927 104.22 60.9704 103.371 61.4912C102.043 62.3083 101.667 63.522 101.869 65.006C102.061 66.414 102.237 67.8279 102.344 69.2439C102.364 69.5103 102.071 69.9909 101.841 70.051C101.208 70.2172 100.527 70.2673 99.8722 70.2393C99.6819 70.2312 99.3835 69.8127 99.3534 69.5563C99.1171 67.5155 98.9449 65.4687 98.7206 63.4258C98.6805 63.0613 98.4802 62.7149 98.3541 62.3604C98.0697 62.5666 97.8053 62.817 97.4929 62.9632C97.2706 63.0673 96.9221 63.1334 96.7418 63.0253C96.5616 62.9191 96.3833 62.5406 96.4354 62.3443C96.9201 60.5459 99.2092 59.7307 100.689 60.8503C101.294 61.3069 101.721 61.2729 102.253 60.7822C103.251 59.8649 104.469 59.6005 105.78 59.7968C107.1 59.9951 108.015 61.0265 108.15 62.3724C108.304 63.9285 108.472 65.4847 108.644 67.0408C108.664 67.2211 108.742 67.3973 108.833 67.7078L108.831 67.7098Z" fill="white"/>
<path d="M25.3631 76.612C25.7176 76.1694 25.8117 75.9731 25.9659 75.875C26.2683 75.6847 26.6048 75.5485 26.9272 75.3883C26.9913 75.7809 27.2076 76.2275 27.0915 76.5559C26.5687 78.038 24.7803 78.5927 23.3703 77.8798C23.0118 77.6995 22.3209 77.7215 22.0205 77.9579C19.2566 80.1189 15.2952 77.7336 15.1049 74.2768C15.0168 72.6585 15.205 71.1585 16.4487 69.9488C17.4221 69.0035 18.5537 68.659 19.8975 68.6991C21.0431 68.7331 22.2007 68.629 23.3423 68.5008C24.1374 68.4107 24.4378 68.7131 24.4999 69.4641C24.6561 71.3587 24.8364 73.2514 25.0286 75.142C25.0707 75.5445 25.2069 75.9391 25.3651 76.612H25.3631ZM21.9764 75.17C21.8422 73.9824 21.704 72.7947 21.5778 71.6071C21.4857 70.7379 20.8849 70.1911 20.1519 70.2011C19.6772 70.2071 18.9803 70.7419 18.78 71.2085C18.073 72.8548 18.2412 74.5271 19.1525 76.0813C19.543 76.7482 20.0998 77.2229 20.959 76.9164C21.7781 76.626 22.0165 75.9731 21.9764 75.17Z" fill="white"/>
<path d="M70.9542 71.8854C71.2446 71.4228 71.3167 71.2225 71.4569 71.1044C71.6992 70.9001 71.9856 70.7479 72.254 70.5736C72.3301 70.9161 72.5544 71.3066 72.4582 71.589C71.9756 73.005 70.7539 73.6379 69.5242 73.2333C68.5428 72.9109 67.8439 73.013 66.8705 73.4456C64.1768 74.6393 61.7995 73.6399 60.716 70.4935C59.7927 67.8078 61.2407 64.7916 63.7202 64.0907C63.9124 64.0366 64.1087 63.9805 64.307 63.9705C65.9252 63.8864 67.5434 63.8343 69.1597 63.7302C69.9448 63.6801 69.8887 64.1988 69.9368 64.7015C70.131 66.6883 70.3253 68.677 70.5476 70.6618C70.5836 70.9862 70.7539 71.2966 70.9542 71.8854ZM63.626 68.4887C63.9885 69.5202 64.2228 70.5756 64.7376 71.4689C64.9759 71.8814 65.783 72.1979 66.3017 72.1578C66.9807 72.1058 67.4693 71.5089 67.4113 70.7278C67.3111 69.37 67.2791 67.9901 66.9807 66.6742C66.8665 66.1735 66.1455 65.7149 65.5967 65.4566C65.3704 65.3504 64.6995 65.7329 64.5313 66.0514C64.1427 66.7844 63.9365 67.6155 63.626 68.4887Z" fill="white"/>
<path d="M58.1304 72.9991C58.4248 72.6246 58.581 72.3122 58.8334 72.1379C59.0437 71.9937 59.4402 71.8916 59.6225 71.9977C59.8047 72.1039 59.9309 72.5064 59.8929 72.7508C59.7186 73.8463 58.4969 74.7155 57.2051 74.7235C55.9614 74.7315 54.952 74.0085 54.7698 72.8249C54.4974 71.0484 54.3091 69.2599 54.1129 67.4715C54.0508 66.9047 54.0007 66.43 53.2637 66.3539C53.0434 66.3319 52.7209 66.0054 52.6949 65.7891C52.6709 65.5849 52.9272 65.2284 53.1435 65.1382C53.7504 64.8879 53.7684 64.4593 53.7143 63.9186C53.5361 62.096 53.4059 60.2695 53.2136 58.449C53.1395 57.752 53.4499 57.4456 54.0708 57.3695C54.4994 57.3154 54.9721 57.2033 55.3566 57.3294C55.7111 57.4456 56.1917 57.8101 56.2398 58.1225C56.5142 59.895 56.7345 61.6815 56.8466 63.4699C56.8967 64.277 57.111 64.5955 57.9422 64.6195C58.3427 64.6315 58.7353 64.986 59.1318 65.1863C58.7693 65.4427 58.3868 65.677 58.0483 65.9634C57.7359 66.2297 57.2091 66.5702 57.2292 66.8446C57.3714 68.7332 57.6317 70.6138 57.8641 72.4964C57.8781 72.6146 57.9802 72.7227 58.1264 72.9931L58.1304 72.9991Z" fill="white"/>
<path d="M120 66.424C118.604 68.3747 116.249 69.1738 114.22 68.3867C111.534 67.3453 110.247 65.5268 110.625 63.0093C111.126 59.6847 114.114 58.0224 117.108 58.7514C119.135 59.2441 119.696 61.7696 118.131 63.2817C117.45 63.9386 116.535 64.3471 115.774 64.9299C115.42 65.2003 114.935 65.6249 114.939 65.9714C114.949 66.7184 115.916 67.4234 116.579 67.2011C117.248 66.9768 117.895 66.5902 118.454 66.1496C119.305 65.4787 119.443 65.4627 119.996 66.424H120ZM114.134 62.9752C114.1 63.7082 114.5 63.9846 115.075 63.7323C115.792 63.4178 116.545 63.0293 117.062 62.4685C117.424 62.078 117.655 61.2689 117.501 60.7902C117.374 60.3977 116.619 60.0972 116.093 59.9691C115.352 59.7888 114.925 60.3396 114.701 60.9725C114.47 61.6254 114.32 62.3063 114.134 62.9752Z" fill="white"/>
<path d="M96.7779 66.1295C96.5195 68.619 95.2998 70.7439 92.6321 71.0904C90.8757 71.3187 89.634 70.3274 88.6646 68.9515C87.1546 66.8045 87.463 63.8644 89.3937 62.0699C91.4785 60.1313 95.2618 61.1587 96.0849 63.8824C96.3112 64.6335 96.5476 65.3805 96.7779 66.1295ZM95.5041 66.458C95.3819 65.1382 94.9413 64.0867 94.0741 63.2275C93.1128 62.2742 91.9232 62.5446 91.4886 63.8164C90.9358 65.4306 91.2062 67.0028 91.9832 68.4588C92.6121 69.6384 93.9239 69.6504 94.6229 68.5088C95.0074 67.882 95.2157 67.147 95.5041 66.46V66.458Z" fill="white"/>
<path d="M92.4078 43.1077C93.0728 43.1838 93.4873 43.2319 93.9019 43.278C93.6155 43.6805 93.4172 44.2493 93.0287 44.4496C92.1875 44.8802 91.3344 44.8141 90.5453 44.1151C90.2248 43.8327 89.656 43.6405 89.2375 43.6945C87.2788 43.9469 86.023 43.0176 85.4242 41.7799C84.597 40.0695 85.1198 37.8965 86.5457 36.5727C87.7234 35.4792 89.1734 35.4151 90.7956 36.2442C91.4185 36.5627 92.1595 36.6748 92.8605 36.803C93.6476 36.9472 93.8458 37.3838 93.6496 38.0908C93.2951 39.3706 92.9206 40.6463 92.5841 41.9321C92.4739 42.3547 92.4539 42.8033 92.4098 43.1097L92.4078 43.1077ZM87.4029 40.444C87.467 40.4881 87.5331 40.5302 87.5972 40.5742C87.6853 40.9628 87.6833 41.4094 87.8856 41.7218C88.1119 42.0703 88.5365 42.5329 88.8549 42.5169C89.2495 42.4989 89.8283 42.1224 89.9705 41.7599C90.369 40.7445 90.6755 39.671 90.8277 38.5915C90.8857 38.1829 90.5292 37.532 90.1667 37.3097C89.8924 37.1415 89.0953 37.3317 88.901 37.6161C88.3042 38.4933 87.8856 39.4927 87.3989 40.444H87.4029Z" fill="white"/>
<path d="M76.8483 66.4239C76.4217 66.1215 76.1273 65.9092 75.8289 65.7029C75.148 65.2302 74.5071 65.2042 73.8181 65.7469C73.5838 65.9312 73.0591 66.0494 72.8768 65.9152C72.6525 65.7469 72.5403 65.2783 72.5664 64.9518C72.6465 63.9004 73.4837 63.0432 74.5752 62.9391C75.192 62.881 75.8369 62.9651 76.4518 63.0812C77.4331 63.2675 78.3844 63.5619 79.3378 62.915C79.51 62.7969 79.9907 62.9491 80.1929 63.1293C80.3151 63.2375 80.265 63.7001 80.1349 63.9044C79.2817 65.2522 78.3864 66.5741 77.5012 67.9019C76.8904 68.8172 76.9705 68.9754 77.9178 69.44C78.8431 69.8927 79.6442 70.3133 80.6095 69.416C81.0541 69.0034 81.659 69.5802 81.5288 70.3333C81.2925 71.7072 80.0888 72.5904 78.5407 72.4162C77.7235 72.324 76.9184 72.0897 76.1013 72.0396C75.6066 72.0096 75.0979 72.2239 74.5932 72.298C74.2868 72.3441 73.9743 72.332 73.6639 72.3481C73.6879 72.0176 73.6018 71.6211 73.754 71.3667C74.5531 70.0289 75.4163 68.7271 76.2515 67.4112C76.4438 67.1088 76.622 66.7964 76.8463 66.4219L76.8483 66.4239Z" fill="white"/>
<path d="M71.3307 39.6748C71.0943 39.9672 70.9041 40.3137 70.6177 40.542C68.7811 42 65.9092 41.5494 64.5413 39.6127C63.2134 37.7341 63.6801 35.0144 65.793 33.9189C66.7964 33.3981 68.2144 33.278 69.3439 33.4983C71.0082 33.8227 71.3647 36.1399 70.0289 37.2214C69.4921 37.656 68.8613 37.9805 68.2444 38.3049C67.7017 38.5913 66.9246 38.6674 67.3712 39.6047C67.6816 40.2556 68.4927 40.4859 69.2458 40.1074C69.5122 39.9732 69.7345 39.7509 70.0068 39.6388C70.3593 39.4946 70.7399 39.4185 71.1104 39.3143C71.1845 39.4365 71.2586 39.5567 71.3327 39.6788L71.3307 39.6748ZM68.665 34.3014C67.6336 34.3635 67.3171 35.0004 67.1609 35.7033C67.0507 36.204 67.1048 36.7408 67.0868 37.2635C67.6235 37.0993 68.1663 36.945 68.697 36.7628C68.8813 36.7007 69.1296 36.6086 69.1957 36.4624C69.39 36.0298 69.6764 35.5331 69.6023 35.1185C69.5442 34.8001 68.9954 34.5698 68.665 34.3014Z" fill="white"/>
<path d="M85.3521 68.4407C85.3681 68.707 85.3541 68.9794 85.4122 69.2358C85.4622 69.4681 85.5924 69.6824 85.6865 69.9047C85.8888 69.7765 86.0791 69.6163 86.2974 69.5282C86.6218 69.398 86.9643 69.3219 87.3008 69.2217C87.3308 69.5362 87.473 69.8947 87.3709 70.159C86.9623 71.2205 85.8568 71.9435 84.9135 71.8514C83.6357 71.7252 82.6223 70.878 82.436 69.5041C82.1496 67.3972 82.0155 65.2683 81.8072 63.1493C81.7531 62.6066 81.9894 62.3262 82.5242 62.2982C84.9275 62.168 84.6611 61.7975 84.9535 64.0746C85.0456 64.7996 85.1137 65.5286 85.1878 66.2576C85.2619 66.9847 85.332 67.7117 85.4041 68.4367C85.3861 68.4367 85.3701 68.4407 85.3521 68.4427V68.4407Z" fill="white"/>
<path d="M73.2673 35.2768C72.7006 35.2768 72.264 35.2768 71.8274 35.2768C72.0677 34.8081 72.1999 34.1913 72.5804 33.9129C72.981 33.6205 73.6158 33.5764 74.1526 33.5644C75.0078 33.5424 75.8669 33.6966 76.7221 33.6666C78.1581 33.6165 79.4339 34.5017 79.4699 35.6633C79.488 36.2301 79.4419 36.7809 78.7169 36.843C78.0219 36.901 77.367 36.8049 77.1187 35.9918C77.0806 35.8656 77.1127 35.6994 77.0426 35.6032C76.8763 35.3749 76.6661 35.1746 76.4738 34.9644C76.2875 35.2007 75.9651 35.421 75.941 35.6733C75.7828 37.2956 75.6607 38.9238 75.5866 40.5521C75.5485 41.3872 75.2481 41.7578 74.3649 41.6977C73.1352 41.6136 73.037 41.5254 73.1231 40.2577C73.2213 38.7957 73.2914 37.3316 73.3555 35.8676C73.3655 35.6253 73.2854 35.3809 73.2673 35.2728V35.2768Z" fill="white"/>
<path d="M60.7941 41.7959C60.2774 41.6838 59.7647 41.5015 59.244 41.4755C58.6752 41.4474 58.1004 41.5696 57.5276 41.6117C57.2272 41.6337 56.9268 41.6257 56.6263 41.6317C56.6624 41.2972 56.5983 40.9047 56.7525 40.6363C57.3113 39.661 57.9742 38.7437 58.533 37.7683C58.7393 37.4078 58.7633 36.9452 58.8714 36.5286C58.2566 36.3784 57.6437 36.2102 57.0229 36.092C56.8967 36.068 56.7405 36.2843 56.5863 36.3063C56.346 36.3404 56.0115 36.3944 55.8713 36.2703C55.7231 36.1361 55.675 35.7856 55.7211 35.5573C55.9314 34.5098 56.7325 33.9571 57.9622 34.0312C59.0757 34.0973 60.1793 34.5619 61.3008 34.0091C61.423 33.9491 61.8456 34.1593 61.8516 34.2635C61.8716 34.5699 61.8335 34.9364 61.6733 35.1888C61.1446 36.0299 60.4957 36.799 60.013 37.6622C59.7887 38.0607 59.6525 38.958 59.8007 39.0381C60.4016 39.3665 60.9864 40.0335 61.8476 39.5188C62.136 39.3465 62.5726 39.4186 62.9411 39.3806C62.9331 39.719 63.0092 40.0875 62.901 40.388C62.5565 41.3453 61.8476 41.8079 60.7941 41.7979V41.7959Z" fill="white"/>
<path d="M54.6396 35.2247C53.8545 36.5245 53.1415 37.642 52.5046 38.7996C52.3124 39.1481 52.2122 39.9532 52.2703 39.9732C52.9492 40.2116 53.6602 40.3798 54.3752 40.4799C54.7357 40.53 55.1222 40.3978 55.4988 40.3478C55.4727 40.7503 55.5448 41.1949 55.4006 41.5494C55.0642 42.3706 54.3952 42.7611 53.488 42.677C52.8251 42.6149 52.1642 42.5047 51.5012 42.4987C51.0606 42.4947 50.618 42.6389 50.1734 42.707C49.911 42.7471 49.6467 42.7691 49.3823 42.7991C49.3643 42.4847 49.2281 42.1122 49.3503 41.8679C49.7328 41.0988 50.2115 40.3778 50.6581 39.6428C50.7963 39.4165 51.0166 39.2182 51.0847 38.9739C51.2168 38.5072 51.4792 37.7081 51.311 37.5939C50.7702 37.2234 50.1494 36.6586 49.3483 37.2535C49.1159 37.4257 48.6954 37.3456 48.3609 37.3816C48.3529 37.0392 48.2447 36.6607 48.3549 36.3622C48.7074 35.4129 49.4424 34.9984 50.4598 35.0424C51.5473 35.0905 52.6468 35.7674 53.7343 34.9603C53.8545 34.8722 54.203 35.0905 54.6376 35.2267L54.6396 35.2247Z" fill="white"/>
<path d="M46.5704 42.1984C47.2013 42.0302 47.9163 41.6857 48.0365 41.8319C48.5372 42.4387 48.1626 43.1056 47.6059 43.4121C46.989 43.7525 46.1539 44.113 45.553 43.9508C44.9542 43.7886 44.2813 43.0716 44.073 42.4527C43.5663 40.9527 43.346 39.3605 42.9414 37.8243C42.7411 37.0673 42.9334 36.6587 43.7045 36.5586C44.4435 36.4605 45.2586 36.154 45.4789 37.3377C45.7453 38.7716 46.0757 40.1936 46.3882 41.6196C46.4423 41.8639 46.5384 42.0962 46.5704 42.1984Z" fill="white"/>
<path d="M82.8085 41.0949C82.9948 41.137 83.0268 41.151 83.0589 41.149C83.4695 41.143 83.88 41.133 84.2886 41.125C84.0122 41.5776 83.842 42.2205 83.4374 42.4488C81.9133 43.306 80.1829 42.1804 80.3371 40.44C80.4833 38.7877 80.7457 37.1435 81.0121 35.5052C81.1943 34.3897 82.0535 34.7622 82.7505 34.8022C83.4815 34.8443 83.6117 35.2589 83.5095 35.8937C83.2612 37.4319 83.0369 38.974 82.8105 40.5161C82.7825 40.7004 82.8065 40.8927 82.8065 41.0929L82.8085 41.0949Z" fill="white"/>
<path d="M82.5342 58.4808C81.4787 58.4608 80.6095 57.5535 80.6095 56.472C80.6095 55.3265 81.4987 54.4633 82.6483 54.4973C83.7819 54.5314 84.605 55.4346 84.557 56.5902C84.5109 57.6897 83.6457 58.5009 82.5362 58.4808H82.5342Z" fill="white"/>
<path d="M84.7212 30.2037C84.7172 31.0649 84.0863 31.6958 83.2231 31.7038C82.2137 31.7118 81.6189 31.115 81.6229 30.0956C81.6269 29.1623 82.2498 28.5294 83.1651 28.5254C84.0823 28.5214 84.7252 29.2144 84.7212 30.2037Z" fill="white"/>
<path d="M42.8693 33.5785C41.9761 33.5785 41.3452 32.8955 41.3652 31.9502C41.3873 30.9488 41.948 30.3981 42.9374 30.4061C43.8286 30.4121 44.4575 31.087 44.4575 32.0383C44.4575 32.9917 43.8527 33.5805 42.8693 33.5805V33.5785Z" fill="white"/>
<path d="M69.41 88.7969C69.0135 89.576 69.0095 90.323 68.0602 90.1748C67.211 90.0426 66.0153 89.1213 66.2837 88.891C66.8465 88.4084 67.5735 88.0178 68.2925 87.8676C68.5889 87.8055 69.0335 88.4664 69.41 88.7969Z" fill="white"/>
<path d="M53.7784 87.9377C54.5855 88.4965 55.4307 88.7849 55.683 89.3417C55.9214 89.8704 55.1463 90.289 54.5515 90.275C53.8285 90.257 53.3798 89.7943 53.3999 89.0413C53.4079 88.7489 53.5921 88.4605 53.7804 87.9397L53.7784 87.9377Z" fill="white"/>
<path d="M70.0069 82.4902C69.2438 82.6384 68.5789 82.7846 67.908 82.8848C67.7137 82.9128 67.3372 82.8387 67.3231 82.7646C67.243 82.296 67.193 81.8093 67.251 81.3426C67.2651 81.2365 67.8258 81.0402 67.9881 81.1364C68.7371 81.573 69.4341 82.0977 70.0069 82.4922V82.4902Z" fill="white"/>
<path d="M55.5188 91.3764C53.3318 91.3184 51.3611 92.7343 49.124 92.3318C51.2749 92.1155 53.2517 90.8297 55.5188 91.3764Z" fill="white"/>
<path d="M60.4737 91.138C60.1132 90.7355 59.9049 90.5012 59.6966 90.2688C60.0911 90.0145 60.4576 89.674 60.8882 89.5458C61.1005 89.4817 61.431 89.8082 61.7074 89.9584C61.3429 90.3069 60.9764 90.6574 60.4717 91.14L60.4737 91.138Z" fill="white"/>
<path d="M66.7443 85.2458C66.9486 85.5523 67.2831 85.8467 67.3151 86.1691C67.3391 86.3994 66.9566 86.6698 66.7543 86.9222C66.506 86.6478 66.1615 86.4095 66.0434 86.089C65.9693 85.8847 66.2336 85.5583 66.3458 85.2859C66.478 85.2719 66.6101 85.2579 66.7423 85.2458H66.7443Z" fill="white"/>
<path d="M72.3481 84.3687C71.7473 84.0162 71.1464 83.6638 70.5456 83.3113C70.6037 83.2031 70.6618 83.095 70.7198 82.9868C71.3287 83.3353 71.9375 83.6858 72.5484 84.0343C72.4823 84.1444 72.4162 84.2566 72.3481 84.3667V84.3687Z" fill="white"/>
<path d="M74.1306 91.4385C73.9683 91.7109 73.8562 92.0513 73.6199 92.2296C73.5077 92.3137 73.1612 92.0834 72.7306 91.9272C73.2513 91.6007 73.5678 91.4004 73.8842 91.2021C73.9663 91.2823 74.0484 91.3604 74.1306 91.4405V91.4385Z" fill="white"/>
<path d="M60.4957 9.6956C61.0863 9.6956 61.5652 9.21678 61.5652 8.62612C61.5652 8.03546 61.0863 7.55664 60.4957 7.55664C59.905 7.55664 59.4262 8.03546 59.4262 8.62612C59.4262 9.21678 59.905 9.6956 60.4957 9.6956Z" fill="white"/>
<path d="M59.995 6.46706C59.6085 5.44364 59.3621 4.37016 59.1358 3.30669C59.0236 2.78797 58.8354 2.26324 58.9355 1.7265C59.0236 1.08561 59.4222 0.518831 59.995 0.146315C60.698 -0.308314 61.431 0.386648 61.7735 0.935407C62.2521 1.68444 62.0679 2.51359 61.8556 3.30468L61.6853 4.09378C61.4951 4.89889 61.2948 5.67797 60.9984 6.46305C60.8362 6.91969 60.1572 6.91368 59.997 6.46305L59.995 6.46706Z" fill="white"/>
<path d="M58.8194 6.7314C58.3667 6.19065 57.8761 5.68195 57.3033 5.29141C56.8747 5.04106 56.4201 4.97697 55.9354 4.89686C55.8593 4.87883 55.7631 4.87283 55.7011 4.84278L55.4908 4.74064C55.3045 4.65052 55.2264 4.42621 55.3165 4.23995C55.8212 3.61108 56.7926 3.59706 57.4835 3.9155C58.1284 4.21592 58.535 4.82877 58.7613 5.46765C58.8354 5.60183 59.25 7.06586 58.8194 6.7314Z" fill="white"/>
<path d="M62.0358 6.67534C62.0859 5.37554 62.8389 3.83341 64.2849 3.71925C64.7456 3.62713 66.1255 3.98963 65.6829 4.64453C65.6248 4.72865 65.4365 4.79474 65.3484 4.84281C65.074 4.92292 64.7396 4.94695 64.4672 5.01505C63.5119 5.22133 62.855 6.02444 62.2301 6.73142C62.178 6.81954 62.0338 6.77748 62.0378 6.67534H62.0358Z" fill="white"/>
<path d="M20.2821 7.29829C22.7975 3.89157 27.2958 2.56174 31.3874 2.58577C35.6533 2.62582 39.1442 5.38965 42.8713 7.05595C44.089 7.63075 45.3207 8.1755 46.5824 8.64215C47.8422 9.08877 49.136 9.58145 50.4858 9.60949C49.128 9.82979 47.736 9.48331 46.4162 9.17488C43.7645 8.48593 41.211 7.42446 38.7576 6.23081C37.5299 5.642 36.3343 5.02314 35.1146 4.54648C30.6524 2.69192 23.7509 3.88957 20.2821 7.29829Z" fill="white"/>
<path d="M57.0529 7.93326C57.113 7.92925 57.1771 7.90923 57.2372 7.93326C57.2452 7.93726 57.2492 7.95128 57.2452 7.9593C57.0429 8.11751 56.7685 8.16758 56.5322 8.26572C55.6189 8.57415 54.6917 8.83451 53.7624 9.08886C50.0432 10.1704 46.2239 10.8893 42.3406 10.9434C39.755 11.0035 37.1794 10.8853 34.6039 10.5749C32.0223 10.2244 29.5469 9.62961 27.0334 9.42132C22.8276 9.10488 17.9488 9.44535 14.5481 12.1811C13.1642 13.3467 12.0687 14.999 11.9766 16.8436C11.8884 18.3397 12.4552 19.9879 13.8311 20.7209C15.6216 21.9547 18.1932 22.3712 20.0137 20.9693C18.2593 22.5395 15.5215 22.2551 13.6228 21.0614C11.3938 19.9519 10.9411 16.9998 11.7382 14.8388C12.4472 12.9482 13.9293 11.4201 15.6577 10.4207C19.1225 8.47801 23.2321 8.15557 27.1175 8.44196C29.6851 8.63223 32.2086 9.24908 34.732 9.60758C35.9778 9.76579 37.2555 9.87595 38.5193 9.95405C42.3165 10.1924 46.1518 10.0762 49.899 9.39128L53.6722 8.69631C54.1409 8.59818 57.9822 7.93326 57.0509 7.93326H57.0529Z" fill="white"/>
<path d="M100.763 7.29829C97.2966 3.89157 90.3971 2.68991 85.9309 4.54648C84.7112 5.02314 83.5155 5.644 82.2878 6.23081C79.8324 7.42446 77.2809 8.48393 74.6292 9.17488C73.3094 9.48531 71.9175 9.82979 70.5596 9.60948C71.9095 9.58145 73.2053 9.08876 74.463 8.64215C75.7248 8.1755 76.9585 7.62874 78.1741 7.05595C81.8993 5.38965 85.3921 2.62582 89.658 2.58577C93.7497 2.56174 98.2479 3.89157 100.763 7.29829Z" fill="white"/>
<path d="M63.9945 7.93325C63.9364 7.93325 63.8744 7.92925 63.8223 7.95128C63.8183 7.94527 63.8363 7.96529 63.8543 7.9713C64.7536 8.25169 66.4279 8.50003 67.3732 8.69631L71.1464 9.39127C74.8936 10.0762 78.7289 10.1904 82.5262 9.95405C83.7899 9.87394 85.0677 9.76579 86.3134 9.60757C88.8369 9.24907 91.3604 8.63222 93.9279 8.44195C97.8133 8.15356 101.923 8.478 105.388 10.4207C107.116 11.4221 108.598 12.9482 109.307 14.8388C110.104 16.9998 109.652 19.9539 107.423 21.0614C105.522 22.2551 102.786 22.5415 101.032 20.9693C102.852 22.3712 105.424 21.9546 107.214 20.7209C108.588 19.9859 109.159 18.3376 109.069 16.8436C108.977 14.999 107.883 13.3467 106.497 12.1811C103.099 9.44735 98.2139 9.10487 94.0121 9.42131C91.4986 9.6296 89.0231 10.2244 86.4416 10.5749C83.866 10.8873 81.2905 11.0035 78.7049 10.9434C74.8235 10.8873 71.0022 10.1703 67.2831 9.08885C66.7784 8.96267 62.9531 7.87717 63.9945 7.93325Z" fill="white"/>
<path d="M60.5858 115.221C61.1765 115.221 61.6553 114.743 61.6553 114.152C61.6553 113.561 61.1765 113.083 60.5858 113.083C59.9951 113.083 59.5163 113.561 59.5163 114.152C59.5163 114.743 59.9951 115.221 60.5858 115.221Z" fill="white"/>
<path d="M60.0851 111.991C59.6986 110.968 59.4522 109.894 59.2259 108.831C59.1138 108.312 58.9255 107.787 59.0256 107.25C59.1138 106.61 59.5123 106.043 60.0851 105.67C60.7881 105.216 61.5211 105.911 61.8636 106.459C62.3422 107.208 62.158 108.038 61.9457 108.829L61.7755 109.618C61.5852 110.423 61.3849 111.202 61.0885 111.987C60.9263 112.444 60.2473 112.438 60.0871 111.987L60.0851 111.991Z" fill="white"/>
<path d="M58.9075 112.257C58.4549 111.717 57.9642 111.208 57.3914 110.817C56.9628 110.567 56.5082 110.503 56.0235 110.423C55.9474 110.405 55.8513 110.399 55.7892 110.369L55.5789 110.267C55.3926 110.176 55.3145 109.952 55.4046 109.766C55.9093 109.137 56.8807 109.123 57.5716 109.441C58.2165 109.742 58.6231 110.355 58.8494 110.994C58.9235 111.128 59.3381 112.592 58.9075 112.257Z" fill="white"/>
<path d="M62.1239 112.201C62.174 110.901 62.927 109.359 64.373 109.245C64.8337 109.153 66.2136 109.516 65.771 110.17C65.7129 110.255 65.5246 110.321 65.4365 110.369C65.1621 110.449 64.8277 110.473 64.5553 110.541C63.6 110.747 62.9431 111.55 62.3182 112.257C62.2661 112.345 62.1219 112.303 62.1259 112.201H62.1239Z" fill="white"/>
<path d="M20.2821 114.082C23.7489 117.489 30.6484 118.69 35.1146 116.834C36.3343 116.357 37.5299 115.736 38.7576 115.149C41.213 113.956 43.7645 112.896 46.4162 112.205C47.736 111.895 49.128 111.55 50.4858 111.771C49.136 111.799 47.8402 112.291 46.5824 112.738C45.3207 113.205 44.087 113.751 42.8713 114.324C39.1462 115.989 35.6533 118.754 31.3874 118.794C27.2958 118.818 22.7975 117.489 20.2821 114.082Z" fill="white"/>
<path d="M57.0529 113.449C57.111 113.449 57.1731 113.453 57.2252 113.431C57.2292 113.437 57.2111 113.417 57.1931 113.411C56.2939 113.13 54.6196 112.882 53.6742 112.686L49.901 111.991C46.1538 111.306 42.3185 111.192 38.5213 111.428C37.2575 111.508 35.9798 111.616 34.734 111.775C32.2106 112.133 29.6871 112.75 27.1195 112.94C23.2341 113.229 19.1245 112.904 15.6597 110.961C13.9313 109.96 12.4492 108.434 11.7402 106.543C10.9431 104.382 11.3958 101.428 13.6248 100.321C15.5255 99.1271 18.2613 98.8407 20.0157 100.413C18.1952 99.011 15.6236 99.4275 13.8331 100.661C12.4592 101.396 11.8884 103.045 11.9786 104.539C12.0707 106.383 13.1642 108.035 14.5501 109.201C17.9488 111.935 22.8336 112.277 27.0354 111.961C29.5489 111.753 32.0243 111.158 34.6059 110.807C37.1814 110.495 39.757 110.379 42.3426 110.439C46.2239 110.495 50.0452 111.212 53.7644 112.293C54.2691 112.42 58.0944 113.505 57.0529 113.449Z" fill="white"/>
<path d="M100.763 114.082C98.2479 117.488 93.7497 118.818 89.658 118.794C85.3921 118.754 81.9013 115.99 78.1741 114.324C76.9565 113.749 75.7248 113.204 74.463 112.738C73.2033 112.291 71.9095 111.799 70.5596 111.77C71.9175 111.55 73.3094 111.897 74.6292 112.205C77.2809 112.894 79.8344 113.955 82.2878 115.149C83.5155 115.738 84.7112 116.357 85.9309 116.833C90.3931 118.688 97.2946 117.49 100.763 114.082Z" fill="white"/>
<path d="M63.9945 113.449C63.9345 113.453 63.8704 113.473 63.8103 113.449C63.8023 113.445 63.7983 113.431 63.8023 113.423C64.0046 113.265 64.2789 113.215 64.5153 113.116C65.4285 112.808 66.3558 112.548 67.2851 112.293C71.0042 111.212 74.8235 110.493 78.7069 110.439C81.2925 110.379 83.868 110.497 86.4436 110.807C89.0252 111.158 91.5006 111.753 94.0141 111.961C98.2199 112.277 103.099 111.937 106.499 109.201C107.883 108.035 108.979 106.383 109.071 104.539C109.159 103.042 108.592 101.394 107.216 100.661C105.426 99.4275 102.854 99.0109 101.034 100.413C102.788 98.8427 105.526 99.1271 107.425 100.321C109.654 101.43 110.106 104.382 109.309 106.543C108.6 108.434 107.118 109.962 105.39 110.961C101.925 112.904 97.8153 113.227 93.93 112.94C91.3624 112.75 88.8389 112.133 86.3154 111.775C85.0697 111.616 83.7919 111.506 82.5282 111.428C78.7309 111.19 74.8956 111.306 71.1484 111.991L67.3752 112.686C66.9066 112.784 63.0653 113.449 63.9965 113.449H63.9945Z" fill="white"/>
</g>
<defs>
<clipPath id="clip0_110_654">
<rect width="120" height="118.796" fill="white"/>
</clipPath>
</defs>
</svg>
